<svg xmlns="http://www.w3.org/2000/svg" viewBox="0 0 2122 2122"><defs><style>.cls-1{fill:#e2ecf3;}.cls-2{fill:#1f2847;}.cls-3{fill:#f7b6a0;}.cls-4{fill:#006e97;}.cls-5{fill:#21486d;}.cls-6{fill:#fff;}.cls-7{fill:#835091;}.cls-8{fill:#2c4367;}.cls-9{fill:#007aa2;}.cls-10{fill:#244e75;}.cls-11{fill:#102e4d;}.cls-12{fill:#f2937c;}.cls-13{fill:#f5a992;}.cls-14{fill:#af5040;}.cls-15{fill:#f39d94;}.cls-16,.cls-26,.cls-28{fill:none;}.cls-16,.cls-28{stroke:#7f482e;stroke-linecap:round;stroke-linejoin:round;}.cls-16{stroke-width:5.04px;}.cls-17{fill:#9c599f;}.cls-18{fill:#8e5190;}.cls-19{fill:#51396a;}.cls-20{fill:#402c53;}.cls-21{fill:#5e427c;}.cls-22{fill:#533a6c;}.cls-23{fill:#3bbcda;}.cls-24{fill:#d5893a;}.cls-25{fill:#ec9740;}.cls-26{stroke:#102e4d;stroke-miterlimit:10;stroke-width:9.56px;}.cls-27{fill:#00a3c4;}.cls-28{stroke-width:4.78px;}</style></defs><g id="Capa_1" data-name="Capa 1"><path class="cls-1" d="M1050.2,981a318.82,318.82,0,0,0,13,53,339.79,339.79,0,0,0,19.57,46,159.26,159.26,0,0,0-4.45-46.08A124.19,124.19,0,0,0,1050.2,981Z"/><path class="cls-1" d="M1018,924.92q.25-7,.85-13.91c-3,3.71-5.92,7.47-9,11.13C1012.56,923,1015.28,923.9,1018,924.92Z"/><path class="cls-1" d="M929.38,958.21c.62,2.09,1.22,4.19,1.82,6.29q6.62-6.48,13.1-13.09A102.42,102.42,0,0,0,929.38,958.21Z"/><path class="cls-1" d="M951.07,1104.34l1.34,1c7,5.26,14.12,10.33,21.35,15.28,6.67,1.12,13.28,2.43,19.83,3.87a214.42,214.42,0,0,1,22.62-16.5,191.5,191.5,0,0,1,39.24-18.9c-20.75-41.34-33.78-86.42-37-132.77-1.91-1-3.86-2-5.84-2.86a89,89,0,0,0-24.17-7c-15.72,17.29-32.19,33.9-49.15,50,7.72,34.49,12.13,69.67,11.81,105.49C951.13,1102.76,951.08,1103.55,951.07,1104.34Z"/><path class="cls-1" d="M1112.66,1182.18c2.18,1.86,4.25,3.82,6.36,5.76,3.13.57,6.27,1.16,9.41,1.68a350.8,350.8,0,0,1-24.67-26.7c-2.78-3.35-5.49-6.77-8.16-10.22-1.73,4.17-3.58,8.28-5.56,12.3A258.44,258.44,0,0,1,1112.66,1182.18Z"/><path class="cls-1" d="M1249.25,1023.12c52.2,44.62,133.46,35.94,186-3.32,30.1-22.51,50.92-54.28,63.6-89.38-15.45-19.82-34-37.17-55.72-50-31.71-18.71-69-28.09-105.79-24.13-61.91,6.66-104.68,55.5-128.38,110C1217.85,987.77,1230.78,1007.33,1249.25,1023.12Z"/><path class="cls-1" d="M1403.27,720.1c-53.55-34.86-118.66-48.37-180.21-31-19.6,48.15-28.66,101.57-31.19,152.45-1.36,27.4-.46,56.49,5,84.27,4.26-7.26,8.8-14.33,13.71-21.1,22.29-30.71,51.44-55.66,87.44-68.66,36.19-13.06,77-12,113.55-.76,38.36,11.75,70.6,33.89,96.58,62.23.71-3.37,1.33-6.75,1.91-10.14-.2-1.73-.32-3.45-.57-5.19C1500.11,815.54,1459.36,756.61,1403.27,720.1Z"/><path class="cls-1" d="M921.78,1079.94a434.36,434.36,0,0,0-6.88-60.87c-9.11,8.18-18.29,16.28-27.59,24.21h0A336.06,336.06,0,0,0,921.78,1079.94Z"/><path class="cls-1" d="M1162.63,1182.4a56.15,56.15,0,0,0,8.3-7.4,291.39,291.39,0,0,1-12.33-55.55c-15.15-8.74-32.48-12-49.91-11.55-.68,3.85-1.43,7.69-2.33,11.49A341.3,341.3,0,0,0,1162.63,1182.4Z"/><path class="cls-1" d="M1370.78,1148.07a394.18,394.18,0,0,0,78.56-72.89A290,290,0,0,0,1494,1000c-15.56,21.39-34.83,40-58.11,53.92-62.4,37.42-146.25,38.86-204-8a159.66,159.66,0,0,1-36-41.93,297.71,297.71,0,0,0-10.15,99.25A68.12,68.12,0,0,1,1205,1129c7.39,17.56,5.34,34.81-2.37,49.64,2.41,6,5.17,11.8,8.11,17.55a340.42,340.42,0,0,0,59-5.88C1306.27,1183.3,1340.35,1169.47,1370.78,1148.07Z"/><path class="cls-1" d="M956.65,1297.07a61.41,61.41,0,0,0-6.82,9.71c1.5,1.35,3,2.72,4.5,4,57.58,49.56,134.4,72,209.31,74.86,3.57.13,7.14.17,10.71.23,0-1.52,0-3,0-4.55-1.58-59.2-22.78-116.68-62.57-160.07-16.62-2.49-33-8.54-48.57-15.72-20.26,23.16-46.31,40-70.52,58.7C979.94,1274.11,967.26,1284.86,956.65,1297.07Z"/><path class="cls-1" d="M1100.83,775.23A482.81,482.81,0,0,1,1058.22,857a266.47,266.47,0,0,0-11.55,83.12,149.13,149.13,0,0,1,33.89,32.43c23.16,30.42,32.65,68.57,31.21,106.88,1.82,0,3.64-.09,5.45,0a132.83,132.83,0,0,1,39,7.39,320,320,0,0,1,21.57-121.66c-11.71-34.14-15.69-71.61-15.25-106.87.65-51.84,8.47-105.56,25.12-155.53C1153.54,719.47,1124,744.91,1100.83,775.23Z"/><path class="cls-1" d="M840,1026a251.94,251.94,0,0,1-29.58-73c-8.86-39.21-8-79.66-.21-119a380.72,380.72,0,0,1,13.08-48.43c-2.06-3.63-4-7.32-6.16-10.92-24.68-41.74-55.74-84.8-95.88-114.16q-5.82,6.53-11.51,13.11A778.72,778.72,0,0,0,630.84,782.4a410.37,410.37,0,0,0,51,133.67c34.57,57.82,82.9,106.68,137.4,146,4.32-3.44,8.61-6.93,12.91-10.4A218.22,218.22,0,0,1,840,1026Z"/><path class="cls-1" d="M740.48,639.54c7.51,5.66,14.76,11.68,21.67,18.05,29.48,27.11,53.61,59.26,74.5,93.54,21.2-48.58,50.72-93.88,82.9-135.3,37.23-47.92,81-93.65,132.08-127.63a181.48,181.48,0,0,0-15.72-16c-9.07,1-18.11,2.29-27.09,3.93a382.67,382.67,0,0,0-116.11,41.65C835.73,549.16,785.32,592.17,740.48,639.54Z"/><path class="cls-1" d="M696.68,645a183,183,0,0,0-24.11-10.77,168.86,168.86,0,0,0-37-8.81,321.42,321.42,0,0,0-11.17,72.72,368.48,368.48,0,0,0,.7,39.75q12.35-18.63,25.74-36.52C665.31,682,680.66,663.22,696.68,645Z"/><path class="cls-1" d="M883.3,1275.93c-25.94-35.68-44.74-76.73-52.92-119.72-24.33,8.84-46.37,23-62.64,44-19.85,25.68-30.32,62.18-15,92.21,13.21,25.89,42.87,47.31,71.44,41.17S870.94,1301.51,883.3,1275.93Z"/><path class="cls-1" d="M611.35,1173.77c39.46-4,76.66-21,110.29-41.2,25.91-15.61,50.37-33.52,74.28-52.07-56.38-42-106.23-93.59-141.62-154.57a442.9,442.9,0,0,1-44.29-106q-13,25.37-23.73,51.78c-28.13,69.83-43.45,144.78-39.45,220.19a458.33,458.33,0,0,0,11.3,79.57A185.73,185.73,0,0,0,611.35,1173.77Z"/><path class="cls-1" d="M1474.28,625.18c42.36,71.13,74,153.71,67.75,237.79-.63,8.51-1.69,17-3.07,25.54a243.42,243.42,0,0,1,1.15,33.23c-.21,5.62-.67,11.19-1.26,16.74a318.11,318.11,0,0,1,29,60.64c22.86,64.4,28.93,138,8.94,204,46.68-39.41,77.38-95.35,92.67-154.11,17.56-67.49,16.67-139.54,2.8-207.61-14.88-73-43.94-145.91-89.92-205.07-3.14-4.05-6.37-8-9.68-11.9q-16.86-10-34.31-18.92c-32.75-16.76-67.15-31.11-103.18-38.88A642,642,0,0,1,1474.28,625.18Z"/><path class="cls-1" d="M855.36,993.67a180.37,180.37,0,0,1,30-38.1q5-4.8,10.44-9.16c-7.16-21.58-15.42-42.81-24.49-63.62s-18.65-41.29-28.92-61.51c-9.07,34.55-12.69,70.21-7.72,105.85A220,220,0,0,0,855.36,993.67Z"/><path class="cls-1" d="M893.54,704.06c-14.74,24.74-28.21,51.21-38.72,78.75,11,20.34,21.1,41.11,30.7,61.78a894.79,894.79,0,0,1,35,85.83c17.36-8.93,36.48-14.13,56.13-13.79,3.4-3.86,6.87-7.68,10.2-11.61a613.1,613.1,0,0,0,45.84-61.26,296.34,296.34,0,0,1,43.3-83.16,373.84,373.84,0,0,0,14.23-44c17-67,15.71-144.86-21.45-205-7,4.6-13.79,9.38-20.41,14.37C985.7,573.13,933.52,637,893.54,704.06Z"/><path class="cls-1" d="M1143.17,1413.2c-70.93-5.91-140.63-28.56-197-72.22a280.76,280.76,0,0,0,12.48,46.62l164.47,52.48q25.11-8.34,49.59-18.42c.25-2.31.42-4.63.61-6.94Q1158.23,1414.44,1143.17,1413.2Z"/><path class="cls-1" d="M1127.43,670.25a373.78,373.78,0,0,1-7.14,42.86A262.11,262.11,0,0,1,1202,665.86q2.73-6.15,5.67-12.19c14.5-29.79,34.24-58.08,60-79.22a184,184,0,0,1,99.87-41,291.7,291.7,0,0,0-53.11-40.6q-21.78-4.2-43.71-7.55c-38.59-6-77.46-10.91-116.43-13.82a285.09,285.09,0,0,0-61.17,25.35C1124.12,547.69,1133.74,610.8,1127.43,670.25Z"/><path class="cls-1" d="M907.75,986.87c-.89-3.49-1.8-7-2.76-10.46a147.08,147.08,0,0,0-29.18,38.91C886.59,1006,897.28,996.55,907.75,986.87Z"/><path class="cls-1" d="M1065.42,1150.25a185.39,185.39,0,0,0,10-26.25c-2-3.1-4-6.2-5.87-9.35l-.92.27a164,164,0,0,0-40.14,19.29A267.7,267.7,0,0,1,1065.42,1150.25Z"/><path class="cls-1" d="M1379.36,1344.62q-7.18,4.47-14.42,8.89,10.2-3.55,20.25-7.44c-.85-.21-1.71-.39-2.56-.6C1381.54,1345.2,1380.45,1344.89,1379.36,1344.62Z"/><path class="cls-1" d="M1407.67,533.32c26,2.29,51.78,8.73,76.38,17.37-29.91-17.12-62-29.93-95-39.83-1.64-.49-3.29-.94-4.94-1.41Q1396.36,520.85,1407.67,533.32Z"/><path class="cls-1" d="M1710.57,968.11c-3.78,70.55-22.91,142-63.94,200.25a296.18,296.18,0,0,1-91.34,84.52c-19.28,32.69-46.54,58.3-77.85,78.8,52.6,2.87,105.19-6.41,146.68-41.89,54.2-46.36,79.55-117.72,97.48-184.62,20.63-77,34.29-158.83,23.18-238.51-5.44-39.08-17.16-77.42-36.63-111.84-17.43-30.82-40.65-57.68-67.08-81.08a548.51,548.51,0,0,1,35.76,78.67C1701.91,821.05,1714.49,895,1710.57,968.11Z"/><path class="cls-1" d="M541.31,912.76c14.45-47.3,34.74-92.66,59.43-135.5a397.62,397.62,0,0,1-5.2-75.93,356.29,356.29,0,0,1,10.63-76.73,164.06,164.06,0,0,0-33.45,5.34c-33.86,9.16-64.62,27.91-90.56,51.28-57.26,51.58-93.09,124.56-105,200.25-11.69,74.22,3.57,154.22,52.75,212.55,26.06,30.91,59.66,55.29,97.07,68.86-1.67-8.48-3.13-17-4.33-25.51C512,1061.89,519.05,985.61,541.31,912.76Z"/><path class="cls-1" d="M671.2,603.5a210.58,210.58,0,0,1,45,19.94c32.67-34.76,68.17-66.89,106.53-95,33.39-24.43,69.38-45,107.93-60.14a387.77,387.77,0,0,1,72.07-20.13c-39-22.32-85.49-31.49-130.27-27.22-64,6.1-125.93,38.84-170.57,85.3-25.4,26.42-44.39,57.6-57.27,91.25A187.86,187.86,0,0,1,671.2,603.5Z"/><path class="cls-1" d="M1001.9,1221.75a285,285,0,0,0,30.17-25.6c-2.59-.79-5.19-1.56-7.77-2.37-14.43-4.51-28.75-9.5-43-14.74a198,198,0,0,0-36.15,84.76c-.18,1.13-.27,2.26-.43,3.38C961.83,1249.9,983,1235.79,1001.9,1221.75Z"/><path class="cls-1" d="M716.86,1266.48c-2.25-38.45,17.11-76,44.65-101.88,18.76-17.58,41.08-29.55,65-37.31a257.92,257.92,0,0,1-.67-25.94c-1.84-1.22-3.7-2.41-5.53-3.65q-12.3,9.55-24.74,18.92c-33.19,25-67.89,48.61-106.23,65-37,15.81-77.25,25.07-117.64,21-1.78-.18-3.54-.47-5.31-.69a431.33,431.33,0,0,0,28.19,69.53L733,1315.62A103.28,103.28,0,0,1,716.86,1266.48Z"/><path class="cls-1" d="M1270.71,1301.26a238.08,238.08,0,0,1-58.39-50.5,371,371,0,0,1-43.79-27.32q-9.57-.75-19.11-1.87c31.7,42.5,49.55,94.62,53.1,147.9.36,5.33.52,10.67.59,16a528.66,528.66,0,0,0,58.55-5.89c27.28-14.43,54-29.8,80.42-45.83C1317.19,1325.47,1293,1315,1270.71,1301.26Z"/><path class="cls-1" d="M914.66,1318.69c-.16-2-.27-4.07-.38-6.11-3.82-3.9-7.58-7.86-11.21-12-7.88,14-17.28,26.89-28.89,37.57A96.27,96.27,0,0,1,852,1353.56l62.43,19.92C910.82,1355.37,910.44,1336.48,914.66,1318.69Z"/><path class="cls-1" d="M1480.45,1284.3c-5.32,1.41-10.69,2.64-16.07,3.79a14.79,14.79,0,0,1-4.73,5q-23,15.06-46.16,30,8.4,1.74,17,3.21c25.06-12.65,48.83-28.07,68.87-47.68C1493.1,1280.63,1486.83,1282.6,1480.45,1284.3Z"/><path class="cls-1" d="M918.61,1115.33a385.53,385.53,0,0,1-53.5-53.45c-2.43,2-4.9,4-7.34,6-1.14,6.05-1.92,12.15-2.53,18.26q25.13,15.64,51.47,29.11C910.67,1115.17,914.64,1115.24,918.61,1115.33Z"/><path class="cls-1" d="M1070.83,1495c26.85,3.53,55.37-1.29,76.82-18.41a65.83,65.83,0,0,0,16.38-18.76c.47-.82.8-1.69,1.2-2.53-20.66,7.88-41.62,14.93-62.87,21Z"/><path class="cls-1" d="M1308.91,580.65c-27.67,15.61-49.19,39.64-65.35,66.86-1.67,2.82-3.26,5.7-4.84,8.58a224.4,224.4,0,0,1,34.43-3.59c69.57-1.62,137.84,28.9,187.47,76.8a265,265,0,0,1,49.49,65.37c-11.31-70.48-45.95-137.17-86.38-194.91-9.2-13.14-19.19-26.09-29.88-38.51C1364.38,560.33,1334.85,566,1308.91,580.65Z"/><path class="cls-1" d="M855.62,1120l-1.17-.7c0,.3,0,.6.07.91Z"/><path class="cls-1" d="M1076.21,473.13c2.38-1.34,4.74-2.71,7.15-4-3.41.07-6.81.13-10.21.26C1074.2,470.61,1075.18,471.88,1076.21,473.13Z"/><path class="cls-1" d="M1530.25,982.5c-14.46,50.66-43.5,96.81-80.08,135.07-25.68,26.86-55.55,51.86-88.09,70-33.77,18.84-71,29.46-109.17,34.3-8.31,1.05-16.65,1.76-25,2.26,1,1.41,2.16,2.77,3.24,4.15a356.69,356.69,0,0,0,148,38.39c53.72,1.9,107.61-8.86,154.76-34.38a213.21,213.21,0,0,0,19.2-51.11C1568.55,1116.28,1558.6,1043.41,1530.25,982.5Z"/><path class="cls-1" d="M1298.25,1283.87c24.1,13.06,50,22.46,76.39,29.76q14.31-9,28.54-18.17A379.56,379.56,0,0,1,1298.25,1283.87Z"/><path class="cls-1" d="M426.6,1510.75l46.13-278.19L557,1259.47a463.81,463.81,0,0,1-22.37-63.83,237.69,237.69,0,0,1-64.25-28.35c-64.2-40.61-108-107.48-120.83-182.19-14.11-81.85,4.36-167.62,44.9-239.58,36.42-64.64,95.92-122.31,168.67-142.78a195.62,195.62,0,0,1,51.76-7.25c12.79-36.37,31.92-70.38,57.76-99.82,44.82-51.05,108-88.06,175-100,69.62-12.42,141.52,2.88,197.18,46.86,5-.45,9.94-.85,14.93-1.16,30.31-1.87,60.69-1.12,91,1.07a238.44,238.44,0,0,1,56.55-7.84c38.32-.54,76,9.28,109.88,26.93,2.55,1.33,5,2.77,7.52,4.18,78.71,15.42,156.58,41.32,220.13,91.71A346.73,346.73,0,0,1,1591.22,602q7.27,4.44,14.41,9.06c67.12,43.73,122.68,102.95,150.1,179.22,27.68,77,25.25,161.54,11.64,241.14a879.7,879.7,0,0,1-27.66,114.61c-10.94,34.9-24.54,69.46-43.38,100.91-18.55,31-42.52,58.77-72.65,79-34.16,22.89-74.9,33.18-115.65,34.88-24.66,1-49.43-1-73.91-4.84-15.54,7.49-31.51,14.17-47.59,20.12A639.29,639.29,0,0,1,1271,1407.18c-6.56,3.43-13.11,6.86-19.74,10.17q-25.89,12.92-52.46,24.35c-2.14,12.6-5.61,24.81-13.06,35.66-22,32.09-61.44,47.71-99.51,47.53a155.45,155.45,0,0,1-50.82-8.83L790.92,1661.23a1257.48,1257.48,0,0,0,270.08,29c537.58,0,973.37-332.61,973.37-742.92S1598.58,204.39,1061,204.39,87.63,537,87.63,947.31C87.63,1172.63,219.07,1374.51,426.6,1510.75Z"/><path class="cls-1" d="M899.87,1144a261,261,0,0,0-35.17,3.35q-3.32.56-6.6,1.22a274.26,274.26,0,0,0,38.44,95.66,419,419,0,0,0,22.21-91C912.4,1150.18,906.13,1147.07,899.87,1144Z"/><path class="cls-1" d="M953.84,1168.35c-2.58-1-5.18-2.06-7.75-3.14-1.08,7.23-2.29,14.44-3.72,21.6C945.87,1180.47,949.73,1174.33,953.84,1168.35Z"/><path class="cls-1" d="M1006.62,1502.74c-5,2.7-13.22,2.23-16.92-2.49-.59-.76-1.15-1.54-1.73-2.3-71.93,6.55-146.13-.41-213.7-26.33-70.64-27.09-130.3-73.8-174.1-135.4A425.67,425.67,0,0,1,557,1259.47l-84.31-26.91L426.6,1510.75l-67.46,406.86,431.78-256.38,244.49-145.17A166.33,166.33,0,0,1,1006.62,1502.74Z"/><path class="cls-1" d="M757.29,1433.27c64.68,31,137.68,41.18,208.94,37.49a206.43,206.43,0,0,1-46.54-77.2,164.08,164.08,0,0,1-5.3-20.08L852,1353.56c-24.61,12.27-53.05,12.51-79.12-1.09a105.16,105.16,0,0,1-39.8-36.85l-138.47-44.18c3.43,6.69,7,13.31,10.79,19.8C641.14,1352.58,693.11,1402.46,757.29,1433.27Z"/><path class="cls-1" d="M995,1459.15q4.79,4.32,9.9,8.21c2-.25,4-.5,6-.77l12.42-7.51c6.77-4.1,13.25-1.91,17.26,2.66a643.65,643.65,0,0,0,82.52-21.66L958.65,1387.6A330.51,330.51,0,0,0,995,1459.15Z"/><path class="cls-1" d="M1047.18,1489.49c1.83.6,3.62,1.3,5.5,1.82a131.78,131.78,0,0,0,18.15,3.72l31.53-18.72Q1075.09,1484.07,1047.18,1489.49Z"/><path class="cls-2" d="M774.27,1471.62C841.84,1497.54,916,1504.5,988,1498c.58.76,1.14,1.54,1.73,2.3,3.7,4.72,11.89,5.19,16.92,2.49a166.33,166.33,0,0,0,28.79,13.32,155.45,155.45,0,0,0,50.82,8.83c38.07.18,77.46-15.44,99.51-47.53,7.45-10.85,10.92-23.06,13.06-35.66q26.57-11.4,52.46-24.35c6.63-3.31,13.18-6.74,19.74-10.17a639.29,639.29,0,0,0,115.53-31.08c16.08-5.95,32-12.63,47.59-20.12,24.48,3.84,49.25,5.87,73.91,4.84,40.75-1.7,81.49-12,115.65-34.88,30.13-20.2,54.1-48,72.65-79,18.84-31.45,32.44-66,43.38-100.91a879.7,879.7,0,0,0,27.66-114.61c13.61-79.6,16-164.13-11.64-241.14-27.42-76.27-83-135.49-150.1-179.22q-7.12-4.64-14.41-9.06a346.73,346.73,0,0,0-46.38-44.65c-63.55-50.39-141.42-76.29-220.13-91.71-2.5-1.41-5-2.85-7.52-4.18-33.9-17.65-71.56-27.47-109.88-26.93a238.44,238.44,0,0,0-56.55,7.84c-30.28-2.19-60.66-2.94-91-1.07-5,.31-10,.71-14.93,1.16-55.66-44-127.56-59.28-197.18-46.86-67,12-130.18,49-175,100-25.84,29.44-45,63.45-57.76,99.82a195.62,195.62,0,0,0-51.76,7.25c-72.75,20.47-132.25,78.14-168.67,142.78-40.54,72-59,157.73-44.9,239.58,12.87,74.71,56.63,141.58,120.83,182.19a237.69,237.69,0,0,0,64.25,28.35A463.81,463.81,0,0,0,557,1259.47a425.67,425.67,0,0,0,43.13,76.75C644,1397.82,703.63,1444.53,774.27,1471.62Zm-21.53-179.17c-15.32-30-4.85-66.53,15-92.21,16.27-21,38.31-35.19,62.64-44,8.18,43,27,84,52.92,119.72-12.36,25.58-30.42,51.52-59.12,57.69S766,1318.34,752.74,1292.45ZM546.83,1091.89c-4-75.41,11.32-150.36,39.45-220.19q10.63-26.41,23.73-51.78a442.9,442.9,0,0,0,44.29,106c35.39,61,85.24,112.57,141.62,154.57-23.91,18.55-48.37,36.46-74.28,52.07-33.63,20.25-70.83,37.15-110.29,41.2a185.73,185.73,0,0,1-53.22-2.31A458.33,458.33,0,0,1,546.83,1091.89Zm135-175.82a410.37,410.37,0,0,1-51-133.67A778.72,778.72,0,0,1,709.7,673.66q5.68-6.58,11.51-13.11c40.14,29.36,71.2,72.42,95.88,114.16,2.12,3.6,4.1,7.29,6.16,10.92a380.72,380.72,0,0,0-13.08,48.43c-7.77,39.3-8.65,79.75.21,119A251.94,251.94,0,0,0,840,1026a218.22,218.22,0,0,0-7.78,25.75c-4.3,3.47-8.59,7-12.91,10.4C764.77,1022.75,716.44,973.89,681.87,916.07ZM624.4,698.13a321.42,321.42,0,0,1,11.17-72.72,168.86,168.86,0,0,1,37,8.81A183,183,0,0,1,696.68,645c-16,18.23-31.37,37-45.84,56.37q-13.38,17.88-25.74,36.52A368.48,368.48,0,0,1,624.4,698.13Zm411.51-225.94a181.48,181.48,0,0,1,15.72,16c-51.07,34-94.85,79.71-132.08,127.63-32.18,41.42-61.7,86.72-82.9,135.3-20.89-34.28-45-66.43-74.5-93.54-6.91-6.37-14.16-12.39-21.67-18.05,44.84-47.37,95.25-90.38,152.23-121.77a382.67,382.67,0,0,1,116.11-41.65C1017.8,474.48,1026.84,473.23,1035.91,472.19Zm234.77,13.12q21.91,3.39,43.71,7.55a291.7,291.7,0,0,1,53.11,40.6,184,184,0,0,0-99.87,41c-25.77,21.14-45.51,49.43-60,79.22q-2.94,6-5.67,12.19a262.11,262.11,0,0,0-81.66,47.25,373.78,373.78,0,0,0,7.14-42.86c6.31-59.45-3.31-122.56-34.35-173.41a285.09,285.09,0,0,1,61.17-25.35C1193.22,474.4,1232.09,479.34,1270.68,485.31ZM1538.36,605.5q17.42,8.91,34.31,18.92c3.31,3.9,6.54,7.85,9.68,11.9,46,59.16,75,132,89.92,205.07,13.87,68.07,14.76,140.12-2.8,207.61-15.29,58.76-46,114.7-92.67,154.11,20-66,13.92-139.59-8.94-204a318.11,318.11,0,0,0-29-60.64c.59-5.55,1.05-11.12,1.26-16.74a243.42,243.42,0,0,0-1.15-33.23c1.38-8.5,2.44-17,3.07-25.54,6.24-84.08-25.39-166.66-67.75-237.79a642,642,0,0,0-39.1-58.56C1471.21,574.39,1505.61,588.74,1538.36,605.5Zm-415.24,834.58a643.65,643.65,0,0,1-82.52,21.66c-4-4.57-10.49-6.76-17.26-2.66l-12.42,7.51c-2,.27-4,.52-6,.77q-5.13-3.88-9.9-8.21a330.51,330.51,0,0,1-36.39-71.55A280.76,280.76,0,0,1,946.17,1341c56.37,43.66,126.07,66.31,197,72.22q15,1.24,30.15,1.52c-.19,2.31-.36,4.63-.61,6.94Q1148.23,1431.69,1123.12,1440.08ZM842.44,821.28c10.27,20.22,19.89,40.78,28.92,61.51s17.33,42,24.49,63.62q-5.43,4.35-10.44,9.16a180.37,180.37,0,0,0-30,38.1,220,220,0,0,1-20.64-66.54C829.75,891.49,833.37,855.83,842.44,821.28ZM1068.72,511.6c37.16,60.17,38.47,138,21.45,205a373.84,373.84,0,0,1-14.23,44,296.34,296.34,0,0,0-43.3,83.16A613.1,613.1,0,0,1,986.8,905c-3.33,3.93-6.8,7.75-10.2,11.61-19.65-.34-38.77,4.86-56.13,13.79a894.79,894.79,0,0,0-35-85.83c-9.6-20.67-19.71-41.44-30.7-61.78,10.51-27.54,24-54,38.72-78.75C933.52,637,985.7,573.13,1048.31,526,1054.93,521,1061.76,516.2,1068.72,511.6ZM905,976.41c1,3.48,1.87,7,2.76,10.46-10.47,9.68-21.16,19.12-31.94,28.45A147.08,147.08,0,0,1,905,976.41Zm253.61,143a291.39,291.39,0,0,0,12.33,55.55,56.15,56.15,0,0,1-8.3,7.4,341.3,341.3,0,0,1-56.27-63c.9-3.8,1.65-7.64,2.33-11.49C1126.12,1107.44,1143.45,1110.71,1158.6,1119.45Zm-89.09-4.8c1.89,3.15,3.88,6.25,5.87,9.35a185.39,185.39,0,0,1-10,26.25,267.7,267.7,0,0,0-37-16,164,164,0,0,1,40.14-19.29Zm34.25,48.27a350.8,350.8,0,0,0,24.67,26.7c-3.14-.52-6.28-1.11-9.41-1.68-2.11-1.94-4.18-3.9-6.36-5.76A258.44,258.44,0,0,0,1090,1165c2-4,3.83-8.13,5.56-12.3C1098.27,1156.15,1101,1159.57,1103.76,1162.92Zm-21-83a339.79,339.79,0,0,1-19.57-46,318.82,318.82,0,0,1-13-53,124.19,124.19,0,0,1,28.15,52.93A159.26,159.26,0,0,1,1082.8,1080Zm-64.85-155c-2.67-1-5.39-1.94-8.13-2.78,3.06-3.66,6-7.42,9-11.13Q1018.21,917.94,1018,924.92Zm-88.57,33.29a102.42,102.42,0,0,1,14.92-6.8q-6.49,6.6-13.1,13.09C930.6,962.4,930,960.3,929.38,958.21Zm59.1-11.74a89,89,0,0,1,24.17,7c2,.9,3.93,1.86,5.84,2.86,3.18,46.35,16.21,91.43,37,132.77a191.5,191.5,0,0,0-39.24,18.9,214.42,214.42,0,0,0-22.62,16.5c-6.55-1.44-13.16-2.75-19.83-3.87-7.23-5-14.36-10-21.35-15.28l-1.34-1c0-.79.06-1.58.07-2.37.32-35.82-4.09-71-11.81-105.49C956.29,980.37,972.76,963.76,988.48,946.47Zm74.7,259.1c15.52,7.18,32,13.23,48.57,15.72,39.79,43.39,61,100.87,62.57,160.07,0,1.51,0,3,0,4.55-3.57-.06-7.14-.1-10.71-.23-74.91-2.82-151.73-25.3-209.31-74.86-1.52-1.32-3-2.69-4.5-4a61.41,61.41,0,0,1,6.82-9.71c10.61-12.21,23.29-23,36-32.8C1016.87,1245.56,1042.92,1228.73,1063.18,1205.57Zm147.55-9.35c-2.94-5.75-5.7-11.58-8.11-17.55,7.71-14.83,9.76-32.08,2.37-49.64a68.12,68.12,0,0,0-19.39-25.86,297.71,297.71,0,0,1,10.15-99.25,159.66,159.66,0,0,0,36,41.93c57.79,46.9,141.64,45.46,204,8,23.28-14,42.55-32.53,58.11-53.92a290,290,0,0,1-44.61,75.21,394.18,394.18,0,0,1-78.56,72.89c-30.43,21.4-64.51,35.23-101,42.27A340.42,340.42,0,0,1,1210.73,1196.22Zm-1.82-230c23.7-54.47,66.47-103.31,128.38-110,36.78-4,74.08,5.42,105.79,24.13,21.75,12.83,40.27,30.18,55.72,50-12.68,35.1-33.5,66.87-63.6,89.38-52.49,39.26-133.75,47.94-186,3.32C1230.78,1007.33,1217.85,987.77,1208.91,966.26Zm299.24-68.68c-26-28.34-58.22-50.48-96.58-62.23-36.51-11.19-77.36-12.3-113.55.76-36,13-65.15,37.95-87.44,68.66-4.91,6.77-9.45,13.84-13.71,21.1-5.46-27.78-6.36-56.87-5-84.27,2.53-50.88,11.59-104.3,31.19-152.45,61.55-17.42,126.66-3.91,180.21,31,56.09,36.51,96.84,95.44,106.22,162.15.25,1.74.37,3.46.57,5.19C1509.48,890.83,1508.86,894.21,1508.15,897.58Zm-330.31,67.56a320,320,0,0,0-21.57,121.66,132.83,132.83,0,0,0-39-7.39c-1.81-.07-3.63,0-5.45,0,1.44-38.31-8-76.46-31.21-106.88a149.13,149.13,0,0,0-33.89-32.43A266.47,266.47,0,0,1,1058.22,857a482.81,482.81,0,0,0,42.61-81.77c23.16-30.32,52.71-55.76,86.88-72.49-16.65,50-24.47,103.69-25.12,155.53C1162.15,893.53,1166.13,931,1177.84,965.14Zm-290.53,78.14c9.3-7.93,18.48-16,27.59-24.21a434.36,434.36,0,0,1,6.88,60.87,336.06,336.06,0,0,1-34.48-36.66Zm66.53,125.07c-4.11,6-8,12.12-11.47,18.46,1.43-7.16,2.64-14.37,3.72-21.6C948.66,1166.29,951.26,1167.3,953.84,1168.35Zm-8.66,95.45A198,198,0,0,1,981.33,1179c14.22,5.24,28.54,10.23,43,14.74,2.58.81,5.18,1.58,7.77,2.37a285,285,0,0,1-30.17,25.6c-18.87,14-40.07,28.15-57.15,45.43C944.91,1266.06,945,1264.93,945.18,1263.8Zm257.93,121.69c-.07-5.35-.23-10.69-.59-16-3.55-53.28-21.4-105.4-53.1-147.9q9.54,1.13,19.11,1.87a371,371,0,0,0,43.79,27.32,238.08,238.08,0,0,0,58.39,50.5c22.28,13.75,46.48,24.21,71.37,32.51-26.38,16-53.14,31.4-80.42,45.83A528.66,528.66,0,0,1,1203.11,1385.49Zm95.14-101.62a379.56,379.56,0,0,0,104.93,11.59q-14.22,9.15-28.54,18.17C1348.21,1306.33,1322.35,1296.93,1298.25,1283.87ZM1413.49,1323q23.16-14.87,46.16-30a14.79,14.79,0,0,0,4.73-5c5.38-1.15,10.75-2.38,16.07-3.79,6.38-1.7,12.65-3.67,18.86-5.76-20,19.61-43.81,35-68.87,47.68Q1421.89,1324.75,1413.49,1323Zm-34.34-56.34a356.69,356.69,0,0,1-148-38.39c-1.08-1.38-2.19-2.74-3.24-4.15,8.35-.5,16.69-1.21,25-2.26,38.21-4.84,75.4-15.46,109.17-34.3,32.54-18.14,62.41-43.14,88.09-70,36.58-38.26,65.62-84.41,80.08-135.07,28.35,60.91,38.3,133.78,22.86,198.68a213.21,213.21,0,0,1-19.2,51.11C1486.76,1257.81,1432.87,1268.57,1379.15,1266.67Zm44.58-666.91c40.43,57.74,75.07,124.43,86.38,194.91a265,265,0,0,0-49.49-65.37c-49.63-47.9-117.9-78.42-187.47-76.8a224.4,224.4,0,0,0-34.43,3.59c1.58-2.88,3.17-5.76,4.84-8.58,16.16-27.22,37.68-51.25,65.35-66.86,25.94-14.64,55.47-20.32,84.94-19.4C1404.54,573.67,1414.53,586.62,1423.73,599.76ZM1076.21,473.13c-1-1.25-2-2.52-3.06-3.74,3.4-.13,6.8-.19,10.21-.26C1081,470.42,1078.59,471.79,1076.21,473.13ZM857.77,1067.84c2.44-2,4.91-4,7.34-6a385.53,385.53,0,0,0,53.5,53.45c-4-.09-7.94-.16-11.9-.12q-26.33-13.45-51.47-29.11C855.85,1080,856.63,1073.89,857.77,1067.84ZM855.62,1120l-1.1.21c0-.31,0-.61-.07-.91Zm2.48,28.55q3.28-.66,6.6-1.22a261,261,0,0,1,35.17-3.35c6.26,3.12,12.53,6.23,18.88,9.18a419,419,0,0,1-22.21,91A274.26,274.26,0,0,1,858.1,1148.52ZM1164,1457.86a65.83,65.83,0,0,1-16.38,18.76c-21.45,17.12-50,21.94-76.82,18.41a131.78,131.78,0,0,1-18.15-3.72c-1.88-.52-3.67-1.22-5.5-1.82q27.9-5.41,55.18-13.18c21.25-6,42.21-13.1,62.87-21C1164.83,1456.17,1164.5,1457,1164,1457.86Zm200.91-104.35q7.23-4.42,14.42-8.89c1.09.27,2.18.58,3.27.85.85.21,1.71.39,2.56.6Q1375.14,1350,1364.94,1353.51Zm343.21-598.69c19.47,34.42,31.19,72.76,36.63,111.84,11.11,79.68-2.55,161.52-23.18,238.51-17.93,66.9-43.28,138.26-97.48,184.62-41.49,35.48-94.08,44.76-146.68,41.89,31.31-20.5,58.57-46.11,77.85-78.8a296.18,296.18,0,0,0,91.34-84.52c41-58.29,60.16-129.7,63.94-200.25,3.92-73.11-8.66-147.06-33.74-215.7a548.51,548.51,0,0,0-35.76-78.67C1667.5,697.14,1690.72,724,1708.15,754.82ZM1389,510.86c33,9.9,65.13,22.71,95,39.83-24.6-8.64-50.36-15.08-76.38-17.37q-11.31-12.45-23.6-23.87C1385.72,509.92,1387.37,510.37,1389,510.86ZM701.94,506.3c44.64-46.46,106.57-79.2,170.57-85.3,44.78-4.27,91.26,4.9,130.27,27.22a387.77,387.77,0,0,0-72.07,20.13c-38.55,15.13-74.54,35.71-107.93,60.14-38.36,28.06-73.86,60.19-106.53,95a210.58,210.58,0,0,0-45-19.94,187.86,187.86,0,0,0-26.53-6C657.55,563.9,676.54,532.72,701.94,506.3ZM429.91,1094c-49.18-58.33-64.44-138.33-52.75-212.55,11.91-75.69,47.74-148.67,105-200.25,25.94-23.37,56.7-42.12,90.56-51.28a164.06,164.06,0,0,1,33.45-5.34,356.29,356.29,0,0,0-10.63,76.73,397.62,397.62,0,0,0,5.2,75.93c-24.69,42.84-45,88.2-59.43,135.5-22.26,72.85-29.36,149.13-18.66,224.61,1.2,8.52,2.66,17,4.33,25.51C489.57,1149.31,456,1124.93,429.91,1094Zm136.47,107.89c1.77.22,3.53.51,5.31.69,40.39,4.09,80.64-5.17,117.64-21,38.34-16.39,73-40,106.23-65q12.44-9.36,24.74-18.92c1.83,1.24,3.69,2.43,5.53,3.65a257.92,257.92,0,0,0,.67,25.94c-23.91,7.76-46.23,19.73-65,37.31-27.54,25.84-46.9,63.43-44.65,101.88A103.28,103.28,0,0,0,733,1315.62a105.16,105.16,0,0,0,39.8,36.85c26.07,13.6,54.51,13.36,79.12,1.09a96.27,96.27,0,0,0,22.22-15.37c11.61-10.68,21-23.6,28.89-37.57,3.63,4.1,7.39,8.06,11.21,12,.11,2,.22,4.08.38,6.11-4.22,17.79-3.84,36.68-.27,54.79a164.08,164.08,0,0,0,5.3,20.08,206.43,206.43,0,0,0,46.54,77.2c-71.26,3.69-144.26-6.45-208.94-37.49-64.18-30.81-116.15-80.69-151.93-142-3.79-6.49-7.36-13.11-10.79-19.8A431.33,431.33,0,0,1,566.38,1201.91Z"/><polygon class="cls-3" points="1618.53 1548.43 1617 1719.44 1578.53 1719.53 1552.2 1548.56 1618.53 1548.43"/><path class="cls-4" d="M1568.64,1750.74l175-.25c-2.39-21.06-18.8-25.72-18.8-25.72l-52.07-15.7-47-28-17.73,8.56s-3.57-.64,0,8.07c0,0-22.15,4.63-32.7,0l-6.72,55"/><polygon class="cls-5" points="1568.66 1759.11 1743.7 1758.87 1743.69 1750.49 1568.64 1750.74 1568.66 1759.11"/><path class="cls-6" d="M1688.12,1713.52a4.84,4.84,0,0,0-3,.25,9.55,9.55,0,0,0-1.76,1.19,15.34,15.34,0,0,0-3.27,3.55,21.86,21.86,0,0,0-3.45,8.83l1.87-.92a9.06,9.06,0,0,0-1.16.09l2.16.6c-.11-.36-.53-.53-.82-.73a1.64,1.64,0,0,0-1.77,0c-.41.29-.72.45-.86,1s1,.79,1.29.83a7.55,7.55,0,0,0,1.16.09c.64,0,1.74-.16,1.88-.92a23.69,23.69,0,0,1,2.74-7.71,14.89,14.89,0,0,1,2.48-3.21c.81-.78,1.42-1.69,2.54-2,.6-.17.66-.74,0-.88Z"/><path class="cls-6" d="M1668.89,1707.52c-1.08,2.51-3.06,4.53-4.61,6.74a39.87,39.87,0,0,0-2.28,3.47,14.73,14.73,0,0,0-.9,1.88c-.27.71-.73,1.63-.33,2.35s2.29.73,2.92.18a5,5,0,0,0,1.08-2.13c.27-.67.57-1.34.9-2,.62-1.2,1.34-2.33,2.07-3.46a24.74,24.74,0,0,0,3.43-6.9c.17-.68-2-.75-2.28-.15Z"/><path class="cls-6" d="M1656.44,1701.12a35.9,35.9,0,0,0-6.15,6.88,24.29,24.29,0,0,0-2,3.85,21,21,0,0,0-1.39,4.31H1651a3,3,0,0,0-1.28-1.62,1.37,1.37,0,0,0-1.53,0,2.93,2.93,0,0,0-1.28,1.62c-.15.72,1.39.95,1.77,1,.58,0,2,0,2.25-.72.46-1.34.75-2.72,1.26-4s1.06-2.57,1.67-3.81,1.22-2.35,1.87-3.5a19.72,19.72,0,0,1,2.53-3.43c.65-.74-1.35-.93-1.8-.52Z"/><path class="cls-6" d="M1641.91,1692.69a20,20,0,0,0-2.06,3.56,51.53,51.53,0,0,1-3.89,6.3c-.55.76-1.11,1.51-1.69,2.26l-1,1.17a4.15,4.15,0,0,0-1,1.51.68.68,0,0,0,.28.5l.32.31-.14-.27v.19c0,.6,1.22.45,1.55.31l.57-.25-.88.18a3.2,3.2,0,0,0,2.39-.71,15.35,15.35,0,0,0,1.12-1.3c.6-.72,1.19-1.45,1.75-2.21a31.94,31.94,0,0,0,2.44-3.84,25.35,25.35,0,0,0,2.13-5.61c.07-.28,0-.21.12-.44s.09-.33.14-.49a6.71,6.71,0,0,1,.34-.84c.24-.5-.57-.73-.91-.78a1.75,1.75,0,0,0-1.6.45Z"/><path class="cls-3" d="M1475.91,1067.11c1.14-15.58,16-24.28,18.24-26.31,9.53-9,11.42-8.53,15.07-12.39,7.1-7.47,3.67-6.4,11.12-13.65,19.71-19.2,40.16-71.2,27.44-62.56-36.09,24.55-55.42,30.15-61.22,33.95,0,0,8.29-25.68-1.52-22.92,0,0-5.1-.47-13,20.83-3,8.07-8.16,12.31-12.39,24.1,0,0-17.09,28.33-8.29,60.43C1451.39,1068.59,1463.79,1076.75,1475.91,1067.11Z"/><path class="cls-3" d="M1504.66,1397.27c-30,33.51-65.42,19.77-95.18-18.06-70.15-89.07-82.65-159.15-80.25-196-2.32-7.38,21.51-65.88,70.35-20,0,0,16.6-12.39,66.45,118.19,0,0,12.46,27.88,28.28,17.1C1494.31,1298.44,1547.13,1349.84,1504.66,1397.27Z"/><path class="cls-7" d="M1355.76,1327.71s97.43-15.24,120.45-85.55l-67.3-162.39s-19.09-65.69-76.07-29.26c0,0-72.74,49-30.91,125.72Z"/><path class="cls-3" d="M1518.58,1378.59c15.34-167.35-22.87-219.6-44.25-311.47,0,0-14.28-11-23.22-3.23-22.63,107.13-7.7,249.7-7.7,249.7S1447.75,1401.48,1518.58,1378.59Z"/><path class="cls-8" d="M1342.65,1748.59c33.13-1.53,64.87-14.67,85.84-40.16,42.39-51.54,41.69-127.3,38.78-191.78-3.41-75.59-52-193.14-146-126.63-46,32.51-60.41,93.92-75.15,145-11.69,40.5-26.14,94.77-26,137.1.13,32.19,5.24,52,35.16,64.71C1283.19,1748.75,1312.6,1750,1342.65,1748.59Z"/><polygon class="cls-3" points="1477.65 1548.43 1476.12 1719.44 1437.65 1719.53 1411.33 1548.56 1477.65 1548.43"/><path class="cls-9" d="M1427.76,1750.74l175-.25c-2.39-21.06-18.8-25.72-18.8-25.72l-52.07-15.7-47-28-17.73,8.56s-3.57-.64,0,8.07c0,0-22.14,4.63-32.69,0l-6.73,55"/><polygon class="cls-10" points="1427.79 1759.11 1602.82 1758.87 1602.81 1750.49 1427.76 1750.74 1427.79 1759.11"/><path class="cls-6" d="M1547.24,1713.52a4.84,4.84,0,0,0-3,.25,9.22,9.22,0,0,0-1.76,1.19,14.93,14.93,0,0,0-3.27,3.55,21.86,21.86,0,0,0-3.45,8.83l1.87-.92a8.92,8.92,0,0,0-1.16.09l2.16.6c-.11-.36-.53-.53-.82-.73a1.64,1.64,0,0,0-1.77,0c-.41.29-.72.45-.86,1s1,.79,1.29.83a7.55,7.55,0,0,0,1.16.09c.64,0,1.73-.16,1.88-.92a23.46,23.46,0,0,1,2.74-7.71,14.89,14.89,0,0,1,2.48-3.21c.81-.78,1.42-1.69,2.54-2,.6-.17.66-.74,0-.88Z"/><path class="cls-6" d="M1528,1707.52c-1.08,2.51-3,4.54-4.62,6.74-.79,1.13-1.59,2.26-2.27,3.47a14.73,14.73,0,0,0-.9,1.88c-.27.71-.73,1.63-.33,2.35s2.28.72,2.91.18a4.92,4.92,0,0,0,1.09-2.13c.27-.67.57-1.34.9-2,.62-1.2,1.34-2.33,2.07-3.46a24.74,24.74,0,0,0,3.43-6.9c.18-.68-2-.75-2.28-.15Z"/><path class="cls-6" d="M1515.56,1701.12a35.57,35.57,0,0,0-6.15,6.88,23.49,23.49,0,0,0-2,3.85,21,21,0,0,0-1.39,4.31h4.09a3,3,0,0,0-1.28-1.62,1.37,1.37,0,0,0-1.53,0,2.93,2.93,0,0,0-1.28,1.62c-.15.72,1.39.95,1.77,1,.58,0,2,0,2.25-.72.46-1.34.75-2.72,1.26-4s1.06-2.57,1.67-3.81,1.22-2.35,1.87-3.5a19.72,19.72,0,0,1,2.53-3.43c.64-.74-1.35-.93-1.8-.52Z"/><path class="cls-6" d="M1499.73,1690.69a36.49,36.49,0,0,0-2.74,4.13c-.73,1.21-1.6,2.31-2.39,3.47a13.29,13.29,0,0,0-2.76,7.35l1.57-1a2.42,2.42,0,0,0-2.2,2c-.17.58-.43,1.17.11,1.64.1.09.35.17.42.23s0,.09.07.12,0,.23,0,.09l1.64-.34c.2.19.26.23.18.13a1.26,1.26,0,0,0-1.74,0,.32.32,0,0,0-.08.21c.06.54,1.09.53,1.45.4a1.11,1.11,0,0,0,.6-.42c.1-.14.32-.2-.14,0-.64.23.15,0,.29,0a1.7,1.7,0,0,0,1.09-.78,5.68,5.68,0,0,0,.29-1,4.89,4.89,0,0,1,.19-.46,1.62,1.62,0,0,0,.1-.18l0-.06a1.42,1.42,0,0,1-1.23.55c.5-.07,1.56-.33,1.57-1a13.45,13.45,0,0,1,2.52-7,23.42,23.42,0,0,0,1.8-3.39c.61-1.42,1.1-2.88,1.8-4.26.26-.5-.57-.73-.9-.78a1.77,1.77,0,0,0-1.6.44Z"/><path class="cls-8" d="M1456.81,1347.59c27.31,122.9,60.79,314.69,83.39,314.55,71.57-.46,104.36-31.21,104.36-31.21l-60.47-294.55S1545.24,1225.61,1456.81,1347.59Z"/><path class="cls-8" d="M1625.06,1587.53s-31.25-473.43-150.21-479.38c-58.52-2.92-84.85,106.31-84.85,106.31l-38.93,255.32-43.41-80.13s-103.56,4.35-238,.85c-52.81,80.76-56.4,142.6-46.46,224.72,3.16,26.07,25.53,59.94,42.07,79C1096,1729.56,1146,1753.29,1192,1759c60.4,7.47,91.33-13.88,130.7-55.88,0,0,38-221.24,60.48-236C1427.2,1438.08,1512.67,1612.39,1625.06,1587.53Z"/><path class="cls-11" d="M1102.22,1444.12a9.65,9.65,0,0,0-1.14,2.76c-.18.88-.4,1.76-.61,2.63-.4,1.7-.67,3.4-.93,5.13-.55,3.58-.85,7.17-1.24,10.78-.8,7.5-1.92,15-3.44,22.37q-1.32,6.48-3.06,12.85l.29-1.06a156.89,156.89,0,0,1-7.29,21,132.14,132.14,0,0,1-9.77,19,86.37,86.37,0,0,1-7,9.45l.88-1a79.16,79.16,0,0,1-15.12,13.42l-1,.69-.47.3c-.75.5.6-.37.6-.37-.81.46-1.59,1-2.41,1.43-1.48.84-3,1.6-4.58,2.3-.75.33-1.5.65-2.26,1-.5.2-2.08.75.07,0l-1.4.5c-1.71.6-3.44,1.12-5.2,1.58s-3.55.74-5,1.87c0,0-.46.39-.46.41.72-.43.83-.51.33-.25l.84-.31a2.87,2.87,0,0,0-.69.19c1.12-.22,1.32-.27.61-.16l-.4,0c-1.43.23,1.46,0,.45,0l-1.08,0a17.65,17.65,0,0,0-5.4.88,4.93,4.93,0,0,0-2.51,1.86c-.13.19-.31.24,0,0,.58-.42-.28.26-.4.36-1.48,1.36-.63,2.95,1,3.7a10.64,10.64,0,0,0,7.53.47,17.87,17.87,0,0,0,4.24-2.11l-7.6,1.51c5.17.67,12,.63,16.23-3l-4.4,1.65c11.74-2.12,23.48-6.43,33-13.72a84,84,0,0,0,20.46-23.32,92.87,92.87,0,0,0,7.08-14,153.33,153.33,0,0,0,5.15-15.8,194.68,194.68,0,0,0,5.67-31.34c1-9.93,2-20.11,0-30-.11-.52-.19-1-.3-1.57a8.88,8.88,0,0,0-1-2.11c-.66-1.24-2.88-1.55-4.1-1.52s-3.41.22-4.1,1.52Z"/><path class="cls-3" d="M1339.65,1028.27l-64-62.33,74.44-76.42,64,62.32S1348.61,1005.41,1339.65,1028.27Z"/><path class="cls-12" d="M1354.61,1008.05c21.87-22.19,59.48-56.21,59.48-56.21l-64-62.32-22.35,22.94C1327.27,945.29,1332.73,981.64,1354.61,1008.05Z"/><path class="cls-13" d="M1491.24,971.69c-28.9,16.54-82.38,40.68-112.23,31.16-36.19-11.55-37.43-98.62-26-131.46,14.24-41.1,64.79-73.17,104.74-86.94,45.54-15.69,94.81,9.24,108.17,56.92S1529.13,950,1491.24,971.69Z"/><path class="cls-12" d="M1460.2,784.59a84.85,84.85,0,0,1,26.2-4l-85.82,67.55-35.46,21.41-13.1,3.63c.44-1.46.91-2.87,1.39-4.16C1368.62,828.26,1419.93,797.41,1460.2,784.59Z"/><path class="cls-13" d="M1402,798.79c-18.35-2.75-44.34,26.55-38.74,55.23,9.72.92,25.29-10.88,33.52-16s15.54-10.14,18.55-19.57C1416.21,815.57,1415.52,800.85,1402,798.79Z"/><path class="cls-12" d="M1390.92,829.64c-1.62,1.05-3.41,2.83-5,3.35l1.87-.12-.54-.1c.07,0,.48.13.09,0l-.74-.22c-.36-.09.06,0,.12.06-.12-.06-.25-.1-.36-.16s-.6-.38-.22-.09l-.41-.31c-.07-.05-.12-.12-.18-.17s.21.32.06.06-.15-.22-.21-.34-.18-.59-.1-.18a3.23,3.23,0,0,1,0-.88,3,3,0,0,1,.06-.42c0-.09.07-.33,0,0,.11-.4.14-.49.08-.28s0,.11,0,0a9.48,9.48,0,0,1,1.06-2.08,21.79,21.79,0,0,1,3.64-4.12c1.38-1.3,2.94-2.41,4.31-3.71.39-.37,1.89-1.65,1.34-2.32.22.26-.15.52.15.2a.8.8,0,0,0,.15-.21.91.91,0,0,0,.13-.56c-.09-.79-1.5-.85-2-.76a5.91,5.91,0,0,0-1.31.36l-.41.18-.24.1c-.43.23,1.12-.23.45-.14a8.3,8.3,0,0,0-3.87,2,43.37,43.37,0,0,0-5.11,4.85,15.3,15.3,0,0,0-3.65,5.52,4,4,0,0,0,2.28,4.9c1.91,1,4.8,1.62,6.79.75s3.38-2.82,5-4.25c.62-.54-.12-1.06-.65-1.22a3.08,3.08,0,0,0-2.48.32Z"/><path class="cls-12" d="M1398.73,821.53c1.5-1.84,1.1-5.47-.35-7.24-1.71-2.09-4.61-2.78-7.2-2.78-5.48,0-11.11,3.66-14,8.24a17.48,17.48,0,0,0-1.91,4.6,9.58,9.58,0,0,0-.47,5c.22.92,2.27.91,2.7.18,1.66-2.78,3-5.78,4.56-8.61a15.31,15.31,0,0,1,5.91-5.66,9.28,9.28,0,0,1,2.79-1.16l.55-.07h.13c.49,0-.11,0,.42,0a3.75,3.75,0,0,1,1.19.35,4.38,4.38,0,0,1,2,2.49c.58,1.32,1.48,2.84.82,4.3-.51,1.12,2.37,1,2.88.39Z"/><path class="cls-14" d="M1534.64,784.67a26.77,26.77,0,0,1-4.48,11c-3.54,9.16-22,40.82-24.46,46.18-6.78,14.52-21.49,11-34,7.52-3.94-1.09-7.87-2.25-11.82-3.33-11.9-3.24-24-5.75-36.37-3.77-8.2,1.32-27.84,10.18-34.21.94,9.33-6.23,27-21.29,21.18-37.11-.39-2.18-4.47-8-18.25-6.69,0,0,77.35-83.59,142.38-14.73"/><path class="cls-14" d="M1502.39,847.36l31.09-63c23.38,2.37,45.34,47.41,45.35,47.42,7.59,15.57,18.19,71.59-19.85,112.56,0,0-55.78,73.12-118.3,51.61,46.33-18.27,74.09-34.38,91.81-67.44-10-8.56-22.66-36.24-23.79-47.37-1.24-12.22-4.93-27.1-3.58-39.33"/><path class="cls-15" d="M1436,923.38c-3.81,2.22-11.14-3.27-16.36-12.26s-6.39-18.07-2.58-20.28,11.14,3.27,16.36,12.26S1439.79,921.17,1436,923.38Z"/><path class="cls-15" d="M1470.66,983c-3.81,2.22-10.32-1.85-14.52-9.1s-4.55-14.9-.73-17.11,10.3,1.86,14.51,9.1S1474.47,980.78,1470.66,983Z"/><path class="cls-12" d="M1472.82,928.44c-2.68-.6-5.1.66-7.15,2.28a31.42,31.42,0,0,0-5.43,5.38c-3,4-4.08,8.82-5.61,13.49a15.3,15.3,0,0,1-1.36,3.17,6.53,6.53,0,0,1-1.59,1.9l-.47.35c-.21.17,0,0,0,0l-.29.17-.5.25-.21.09c.48-.22.09,0,0,0l-.48.13c-.39.11.5-.06.09,0l-.22,0-.33,0c-.28,0,.11-.12.25,0a3.13,3.13,0,0,0-.68,0c-.35,0,.23,0,.25,0s-.28,0-.34,0l-.58-.08-.23-.05c-.44-.06.49.14.07,0l-.59-.15c-.41-.12-.8-.25-1.2-.4.55.2-.12,0-.25-.11l-.72-.32a26.57,26.57,0,0,1-2.41-1.3l-.36-.22c.31.19.09.05,0,0l-.59-.39c-.43-.29-.85-.59-1.27-.9a47.45,47.45,0,0,1-4.85-4.11q-1-.95-1.92-1.95c-.29-.3-.56-.61-.84-.92,0-.06-.11-.12-.16-.19s.25.31,0,0a7.54,7.54,0,0,0-.58-.67v1.37a5.79,5.79,0,0,0,.57-.64c.36-.5-.27-1-.65-1.2a4.09,4.09,0,0,0-2.44-.31c-.43.08-.86.18-1.29.29s-1.82.79-1.28,1.54a25.13,25.13,0,0,0,3.51,3.56,55,55,0,0,0,4.42,3.63c3.37,2.46,7.11,4.66,11.26,5.43,3.92.74,8.15-.21,10.41-3.72a23.32,23.32,0,0,0,2.42-6.74,45.29,45.29,0,0,1,2.15-6.75,21.38,21.38,0,0,1,4.9-6.92c1-.9,1.84-1.86,2.85-2.69.76-.61,1.87-1.53,2.92-1.42.35,0,1,0,1.2-.29s-.11-.56-.42-.63Z"/><path class="cls-14" d="M1448.83,878.9c5.67,2.59,11,6.68,13.69,12.43a23.29,23.29,0,0,1,2,8.29,33.24,33.24,0,0,1,0,4.68c-.07.87-.17,1.73-.29,2.6a2.69,2.69,0,0,0,.67,2.79c1.26,1.31,4.24.95,5.57,0s1.27-2.74,1.37-4.26a37.56,37.56,0,0,0,0-4,29.13,29.13,0,0,0-1.41-7.52,24.39,24.39,0,0,0-9.1-12.11,36.39,36.39,0,0,0-9.85-4.63,3.56,3.56,0,0,0-2.84.28c-.63.44-.57,1.08.17,1.42Z"/><path class="cls-14" d="M1504.59,961.16a21.38,21.38,0,0,0-2.17-13.11,25.92,25.92,0,0,0-8.81-9.24,28.25,28.25,0,0,0-6.91-3.55c-1.35-.4-5.57-.79-5.79,1.34-.15,1.52,3,2.3,4.1,2.79a26.05,26.05,0,0,1,10,7.74,29.2,29.2,0,0,1,5.19,14c.16,1.51,4.22,1.51,4.4,0Z"/><path class="cls-16" d="M1444.21,893.43s-.24,9.76,8.46,14.55"/><path class="cls-16" d="M1477.19,950.12s-.24,9.76,8.46,14.55"/><path class="cls-12" d="M1412.1,950.54a25.35,25.35,0,0,0,2.79,6.7c.57,1.08.9,2.25,1.49,3.31s1.2,2.15,1.73,3.26a22.29,22.29,0,0,1,2.09,6.6,29.45,29.45,0,0,1,.14,5.71,17.56,17.56,0,0,1-.32,2.61l-.06.21c.1-.35,0,0,0,0s-.11.26-.17.39-.06.1-.07.13c-.07.25.28-.26.1-.11s.76-.48.07,0c-.19.12-.44.26-.51.5l2.85-.8c-.19,0-.1,0,.3.07a2.27,2.27,0,0,0-.62-.12c-.7,0-2.24-.11-2.6.72-.2.47,0,.68.3,1l-.32-.58c0,.48.4.74.78,1a4.61,4.61,0,0,0,2.67.33,3.11,3.11,0,0,0,2.18-1.16,4.73,4.73,0,0,0,.64-2.11,27.27,27.27,0,0,0,.11-5.19,23.12,23.12,0,0,0-1.79-7.73,33.75,33.75,0,0,0-1.72-3.46c-.32-.57-.65-1.13-1-1.68-.19-.31-.4-.6-.58-.91s-.34-.7-.52-1.05c-1.48-2.87-4.16-4.87-5.61-7.76-.29-.57-2.5-.6-2.35.16Z"/><path class="cls-17" d="M1387,1046.12c-11.7,79-4.38,95.1-5.85,150.69-.82,31.17-47,27.09-60,55.59-12.15,26.66-18.74,50.72-25.74,78.52-6.68,26.54-6.66,36.34-34.78,46.38-26.88,9.6-37.47,21.15-65.52,23.56-28.81,2.48-67.38.29-96.39-2.11-45.86-3.78-48.82-40.63-50.66-75.52-5.64-106.42-7.57-217.38,60.7-306.76,22.62-29.62,54.26-53.5,89.64-65.51,26.24-8.91,66.87-11.73,93.49-2.86,4.39,1.46,29.26,71.69,67.3,55.59Z"/><path class="cls-8" d="M1515.33,1659.21s-46.33,36.09-105.33,19l-49.74-171.17-121.44,187.26s-137.52-2.92-143.37-152.15l169.71-351.12s47.79-86.8,108.26-79c0,0,78,5.85,90.7,133.63C1464.12,1245.68,1505.57,1499.25,1515.33,1659.21Z"/><path class="cls-11" d="M1328,1374.09a96.79,96.79,0,0,1,9.1,22.55,227,227,0,0,1,5.35,25.43c1.47,9,3.19,18,5.11,26.93l7,32.53c4.5,20.93,8.74,41.92,13.46,62.79a602.32,602.32,0,0,0,16.29,58.55c3.18,9.49,6.64,18.89,10.45,28.15q2.88,7,6,13.92a64.2,64.2,0,0,0,3.94,6.75c1.32,2.15,2.67,4.28,4,6.41s2.8,4.38,4.23,6.55c.48.74,3.34.72,2.88-.39-1.86-4.49-3.56-9-5.14-13.64-.77-2.23-1.39-4.55-2.35-6.7q-1.54-3.45-3-6.93-5.89-13.9-10.77-28.19a604.32,604.32,0,0,1-16.5-58.34c-4.83-20.64-9.07-41.42-13.57-62.14q-3.54-16.26-7.07-32.53l-3.51-16.12c-.9-4.14-1.53-8.33-2.4-12.48-1.75-8.42-3.64-16.81-6-25.08-2.34-8.11-5.08-16.39-9.46-23.65q-1.56-2.58-3.34-5c-.88-1.19-5.64-1-4.71.63Z"/><path class="cls-11" d="M1315.35,1405.72a29.54,29.54,0,0,1,3.31.92l.78.28c-.6-.21-.38-.15,0,0s1.07.48,1.6.74c2.37,1.18,4.75,2.28,7.08,3.56.58.32,1.15.66,1.72,1,.77.46-.63-.44.11.07l1,.66a34.62,34.62,0,0,1,3.36,2.68c.49.44,1,.89,1.43,1.36l.67.71c.12.12.22.25.33.37-.23-.25-.31-.39,0,0a27.33,27.33,0,0,1,2.41,3.42,22.19,22.19,0,0,1,1.87,4,9.77,9.77,0,0,0,.38,1.23,4.56,4.56,0,0,0,2.63,2,11.65,11.65,0,0,0,9-.26c.89-.42,2-1.27,2-2.37,0-1.38-.9-3.13-1.51-4.36a24.83,24.83,0,0,0-2.2-3.59,35,35,0,0,0-6.22-6.48,41.06,41.06,0,0,0-18.06-8.5,48.79,48.79,0,0,0-9.79-.82c-1,0-3,.19-3.5,1.3s.82,1.82,1.67,2Z"/><path class="cls-11" d="M1355.61,1486.58c.88,4.8-1.51,9.6-3.39,13.86-.94,2.14-1.81,4.37-2.62,6.56a85,85,0,0,0-2.43,9c-3,12.13-4.64,24.54-7.11,36.77-1.36,6.73-3.12,13.36-4.64,20-1.4,6.22-2.79,12.46-4,18.72-3,15.76-6.1,31.51-9.63,47.17-1.87,8.31-3.87,16.6-6.07,24.84-.14.5-.28,1-.41,1.52-.06.2-.11.41-.17.61a3,3,0,0,1-.09.32l-.84,3q-.84,3-1.73,6-1.76,5.84-3.71,11.59a206.4,206.4,0,0,1-8.11,20.5c-1.34,2.9-2.79,5.74-4.4,8.5-1.4,2.41-3.25,4.64-4.49,7.12-.13.27-.29.53-.41.81l-.21.8c.11-.5.11-.64,0-.41-.06,0-.17.33-.2.39a9.09,9.09,0,0,0-.87,2l.75-1.34-.13.14c-.56.6-1,1.21-.55,2a4.19,4.19,0,0,0,2.5,1.59,10.17,10.17,0,0,0,4.18.26,5.79,5.79,0,0,0,3.25-1.22l-.53.3a7.06,7.06,0,0,0,1-.68l.34-.26.84-.66.42-.34c1.32-1.2.23-.74.4-.35a10.2,10.2,0,0,1,.89-.8,22.28,22.28,0,0,0,3.27-4,86,86,0,0,0,4.72-7.8,147.46,147.46,0,0,0,8.61-19.57c5.78-15.81,10.05-32.17,13.86-48.55,3.72-16,6.9-32.12,10-48.26,1.28-6.63,2.43-13.29,3.63-19.94.94-5.15,2-10.27,3.07-15.41,2.41-12.19,3.83-24.55,5.65-36.84.46-3.1.77-6.22,1.19-9.34a58,58,0,0,1,1.33-8.21,56.13,56.13,0,0,0,1.82-7.08,41.27,41.27,0,0,0,.57-7.36,16.67,16.67,0,0,0-1.26-6.43c-.5-1.1-4.58-1.09-4.33.29Z"/><path class="cls-11" d="M1419.36,1136.59c13.63,13.1,22.47,30.61,28.34,48.38,3,9.17,5,18.67,7.16,28.07,2.1,9.07,4,18.19,6,27.28,3.79,17.23,6,34.87,8.53,52.33,4.11,28.52,7.94,57.08,12.28,85.58q7.08,46.51,13.3,93.17c1.8,13.64,3.64,27.28,5.44,40.93q1.18,8.93,2.26,17.87a76.76,76.76,0,0,0,3.27,15.6c.34,1,.69,2,1,3a14.58,14.58,0,0,1,1.18,3.16c.09,1.32,3.86,1.25,3.78,0a13.37,13.37,0,0,1,.69-3.11c.27-1.19.48-2.37.69-3.58a57.25,57.25,0,0,0,.61-7.41c.26-5.57-.49-11.19-1-16.75-1.14-13.28-2.42-26.54-4-39.77-3.79-31-8-62-12.48-92.86q-6.33-44-14.69-87.71c-3.63-18.93-7.15-38-12-56.65-1.72-6.59-3.61-13.14-5.43-19.7-2.6-9.41-5.21-18.81-8.66-28-6.72-17.8-13.48-35.88-25.63-50.81a89.76,89.76,0,0,0-9-9.58c-.42-.38-2.24-.12-1.63.47Z"/><path class="cls-3" d="M1233.84,1407c157.78,12.89,286-67.57,297.74-64.65-6.76,7.22,7.31-21.94-5.85-35.11-133.14,32.19-237,20.48-237,20.48S1228.84,1332.7,1233.84,1407Z"/><path class="cls-3" d="M1281,1400.31c-37.86,24.28-68.32,1.59-86.92-42.8-43.83-104.57-37.18-175.43-25-210.33-.28-7.74,38.3-57.76,73.13-.53,0,0,24.73,17.82,37.93,157,0,0-1.47,21.94,33.64,38C1313.81,1341.65,1334.63,1365.93,1281,1400.31Z"/><path class="cls-17" d="M1136.79,1294.83s111.19,2.92,153.62-68.76l-23.25-161.31s-12.09-63.55-79.69-61.12c0,0-72.6,10.69-75.55,98.07Z"/><path class="cls-18" d="M1147.68,1020.44c-5.39,3.27-9.54,8-13.38,12.88a149.52,149.52,0,0,0-11.72,17.57c-2.49,4.38-4.43,8.93-6.51,13.5a53.7,53.7,0,0,0-3.42,9.19,71.25,71.25,0,0,0-1.54,8.47c-.25,2-.45,3.93-.63,5.91-.09,1.12-.2,2.25-.26,3.38a5.21,5.21,0,0,0,1,4.09c.67,1.38,4.22,1.25,4.94,0a7.19,7.19,0,0,0,1.26-3.19c.09-1.08.11-2.18.17-3.26.08-1.82.19-3.64.34-5.45.23-2.74.53-5.47,1-8.17a41.94,41.94,0,0,1,2.83-9.14c1.72-4,3.24-8.16,5.22-12.1a146.33,146.33,0,0,1,10.31-17.4,110.37,110.37,0,0,1,6.76-8.91,60.71,60.71,0,0,1,6.06-6.46c1.05-.92-1.83-1.27-2.41-.91Z"/><path class="cls-18" d="M1266.76,1068.76c4.16,24.63,6.89,49.46,10.48,74.17,1.32,9,2.79,18.07,3.51,27.16.78,9.89,2.06,19.73,3,29.61.5,5.23.94,10.48,1.25,15.73q.21,3.45.32,6.91c0,1.09.06,2.17.07,3.26a10.4,10.4,0,0,0,.29,3.48c.25.67,1.46,1.12,2,1.29a8.27,8.27,0,0,0,3.39.22c1.31-.22,3.72-.87,3.07-2.65a4.44,4.44,0,0,0-.88-1.73c-.39-.43-.79-.83-1.18-1.25a3.84,3.84,0,0,0-4.35,0c-.39.42-.8.82-1.18,1.25a4.6,4.6,0,0,0-.89,1.73l8.48,1.14c.65-1.78.21-4.12.12-6q-.15-3.09-.38-6.17c-.35-4.64-.82-9.27-1.33-13.89-1.09-9.79-2.16-19.66-4-29.33-4-21-6.44-42.22-9.81-63.31-2.23-14-4.6-27.91-8-41.64-.33-1.33-4.14-1.25-3.93,0Z"/><path class="cls-18" d="M1111.5,1106.1c.36,2.85.61,5.69.71,8.55.13,3.49.59,7,.86,10.46.63,8.17,1.57,16.34,2.39,24.51,1.75,17.53,3.15,35.15,5.57,52.61,1,7.11,2.06,14.21,3.57,21.22.51,2.34,1.22,4.64,1.62,7,.35,2.1.57,4.22.79,6.33,1.29,12.66,2,25.45,4.66,37.92,1.14,5.31,2.5,11,5.49,15.64a13,13,0,0,0,5.27,4.94,15.49,15.49,0,0,0,10.47.86,5,5,0,0,0,1.15-.41c-1.59.79,0,.06.25-.07a5.75,5.75,0,0,0,1.07-.69c.47-.36,1.17-.89,1.11-1.53l-1.1,1.29.15-.07c1.39-.62,1.29-1.94,0-2.59a6.54,6.54,0,0,0-5.29,0l-.15.07,3.64-.47a13.25,13.25,0,0,0-2.52,0c-.23,0-1.21.11-.23,0s.35,0,.15,0c-.45,0-.93,0-1.38.09l-1.12.23q1.29-.24.75-.18c-.5.1-.92-.18.65,0a4.82,4.82,0,0,0-.54,0c-.58,0,1.57.16.54,0-.88-.12,1.35.34.49.09s.65.25.36.16c-.47-.14-1.86-.65-.74-.3.81.26.39.12.2,0-.66-.24.05,0,.25.18-.31-.28-.7-.5-1-.77a10.57,10.57,0,0,1-1-.9c-.11-.12-.61-.73-.22-.24l-.31-.4a25.89,25.89,0,0,1-3.24-6.16c-.49-1.24-.92-2.5-1.3-3.77-.11-.36-.22-.71-.32-1.07l-.12-.43c-.21-.73.14.55,0-.19s-.4-1.5-.58-2.25c-2.94-12.23-3.86-24.84-5.18-37.32-.23-2.27-.48-4.54-.82-6.79-.13-.85-.26-1.71-.45-2.54-.08-.36-.18-.71-.28-1.06-.17-.64.15.55,0-.11,0-.13-.07-.26-.1-.39-.18-.67-.35-1.35-.52-2-1.59-6.57-2.71-13.27-3.74-19.95-2.62-17-4.78-34-7-51q-1.59-12.47-3.46-24.91c-.55-3.63-1.32-7.23-2.08-10.83-.67-3.15-1.6-6.19-2.48-9.28-.36-1.26-.73-2.51-1.12-3.75-.33-1-3.86-.93-3.71.24Z"/><path class="cls-3" d="M1513.28,1328.86c4.07-21.72,11.63-27.28,67.58-74.34,9.63,14,2.06,19.52-13.61,35.44.12-.11,4.72-5.82,5.14-6.22,6.82-6,10.15-11.47,14.92-11.76,7.94-.47,13.48,8.28,20.77,23.14,1.17,2.43-1.31,11.48.2,14s-1.07,10.46-.35,13.66c1.29,5.6-2.77,5.36-5.13,10.23-1.16,2.33-1.63,5.39-3.17,7.44-10,13.39-30,11.13-44.66,11.48-11.5.27-28.51.79-37.69-7.74C1513.22,1340.44,1512.28,1334.15,1513.28,1328.86Z"/><path class="cls-14" d="M1451.61,838.47c-11.15,5-18.92,8.45-27.06,17.55-12.75,14.22-20.45,33.59-33.35,47.29-9.23,9.81-21.12,12.7-30.92,21s-16.93,19.93-22.79,31c-10.45,19.73-18,43.79-23.7,64.29-5.64,20.31-12.34,49.67-33,59.66-10.24,4.93-24.38,6.34-35.84,4.29-17.25-3.11-13.61-8.28-17-23.57-2.22-9.88-7.12-21.6-17.1-27.71-12-7.34-18.35,0-28.42-12-7.4-8.85-31.36-40-30.84-49.43,1.48-27.27,24.61-41,42.18-50.88,24.32-13.61,61-23.39,79-44.33,11.72-13.67,26.79-24.05,38.24-38,11.63-14.16,19.19-31.18,30.94-45.27,20-23.92,52.41-37.64,82.7-42,29.06-4.14,64.25-1.52,88.69,16.33,11.32,8.28,17.84,24.29,9.72,37.74C1515.09,817.58,1451.61,838.47,1451.61,838.47Z"/><polygon class="cls-3" points="498.8 1562.65 500.2 1720.15 535.63 1720.23 559.88 1562.77 498.8 1562.65"/><path class="cls-19" d="M544.74,1749l-161.21-.23c2.2-19.4,17.32-23.69,17.32-23.69l47.95-14.45,43.32-25.78,16.33,7.88s3.29-.59,0,7.42c0,0,20.4,4.27,30.11,0l6.2,50.7"/><rect class="cls-20" x="460.27" y="1672.1" width="7.71" height="161.21" transform="translate(-1289.25 2214.31) rotate(-89.92)"/><path class="cls-6" d="M434.69,1715.52c1,.31,1.55,1.13,2.29,1.83a13.18,13.18,0,0,1,2.29,3,21.68,21.68,0,0,1,2.53,7.11c.14.73,1.19.87,1.78.87a7.88,7.88,0,0,0,1.09-.08c.53-.08,1.35-.32,1.16-1-.1-.35-.49-.49-.76-.67a1.57,1.57,0,0,0-1.68,0c-.28.18-.66.32-.77.67l2.05-.57a6.59,6.59,0,0,0-1.09-.09l1.78.87a20.13,20.13,0,0,0-3.23-8.2,13.74,13.74,0,0,0-3-3.21,7.62,7.62,0,0,0-1.73-1.14,4.5,4.5,0,0,0-2.74-.19c-.63.15-.56.67,0,.84Z"/><path class="cls-6" d="M450.29,1709.31a22.71,22.71,0,0,0,3.17,6.39c.65,1,1.3,2.06,1.86,3.14.3.58.57,1.18.82,1.78a4.91,4.91,0,0,0,1,2c.57.51,2.34.62,2.76-.17a2.43,2.43,0,0,0-.23-2,11.9,11.9,0,0,0-.84-1.81,38.08,38.08,0,0,0-2.11-3.23c-1.45-2.05-3.29-3.92-4.3-6.25-.25-.58-2.33-.5-2.16.14Z"/><path class="cls-6" d="M462.2,1703.76a27.78,27.78,0,0,1,4,6.39c.55,1.13,1.07,2.29,1.51,3.46s.76,2.51,1.18,3.76c.23.68,1.61.72,2.13.68s1.83-.25,1.69-.93a2.8,2.8,0,0,0-1.22-1.5,1.32,1.32,0,0,0-1.45,0,2.72,2.72,0,0,0-1.22,1.5h3.89a19.3,19.3,0,0,0-1.27-3.92,22.35,22.35,0,0,0-1.87-3.6,32.89,32.89,0,0,0-5.69-6.33c-.42-.38-2.32-.22-1.71.49Z"/><path class="cls-6" d="M475.74,1695.51a20,20,0,0,1,3.86,5.7,14.26,14.26,0,0,1,2.13,6.22c0,.65,1,.89,1.49,1h0l-.9-.26s-.32-.38-.24-.15.13.24.18.37a6.89,6.89,0,0,1,.25.85,1.23,1.23,0,0,0,.67.84,2.55,2.55,0,0,0,.48.2c.25.08,1.62.26.48,0-.56-.11-.5-.11-.25.11a1.38,1.38,0,0,0,.25.17c.4.19,1.26.25,1.53-.2a.27.27,0,0,0,0-.31,1.2,1.2,0,0,0-1.66,0l0,0,.79-.22h0l.91.45c0,.22.06-.15.09-.17l-.47.23c.61-.16,1.3-.49,1.2-1.2a6.3,6.3,0,0,0-.31-1.13,2.19,2.19,0,0,0-2-1.5l1.48,1c0-2.39-1.29-4.8-2.5-6.8a17.23,17.23,0,0,0-5.6-5.85,2.07,2.07,0,0,0-1.62,0c-.33.14-.69.45-.32.78Z"/><path class="cls-8" d="M752.87,1747c-30.5-1.4-59.74-13.51-79-37-39-47.48-38.4-117.25-35.72-176.62,3.15-69.62,47.94-177.88,134.52-116.63,42.32,29.93,55.63,86.5,69.2,133.55,10.76,37.3,24.09,87.29,23.93,126.26-.12,29.66-4.82,47.86-32.38,59.6C807.63,1747.14,780.55,1748.27,752.87,1747Z"/><polygon class="cls-3" points="628.54 1562.65 629.94 1720.15 665.38 1720.23 689.63 1562.77 628.54 1562.65"/><path class="cls-21" d="M674.49,1749l-161.22-.23c2.21-19.4,17.32-23.69,17.32-23.69l48-14.45,43.31-25.78,16.32,7.88s3.3-.59,0,7.42c0,0,20.39,4.27,30.11,0l6.19,50.7"/><rect class="cls-22" x="590.02" y="1672.1" width="7.71" height="161.22" transform="translate(-1159.69 2344.06) rotate(-89.92)"/><path class="cls-6" d="M564.43,1715.52c1,.31,1.55,1.12,2.3,1.83a13.47,13.47,0,0,1,2.29,3,21.66,21.66,0,0,1,2.52,7.11c.14.73,1.19.87,1.78.87a7.88,7.88,0,0,0,1.09-.08c.54-.08,1.35-.32,1.16-1-.09-.35-.49-.49-.75-.67a1.57,1.57,0,0,0-1.68,0c-.28.18-.67.32-.78.67l2-.57a6.59,6.59,0,0,0-1.09-.09l1.78.87a20.12,20.12,0,0,0-3.22-8.2,13.78,13.78,0,0,0-3-3.21,7.41,7.41,0,0,0-1.73-1.14,4.5,4.5,0,0,0-2.74-.19c-.63.15-.56.67,0,.84Z"/><path class="cls-6" d="M580,1709.31a23.15,23.15,0,0,0,3.18,6.39c.65,1,1.3,2.06,1.85,3.14.3.58.58,1.18.83,1.78a4.9,4.9,0,0,0,1,2c.58.51,2.34.61,2.77-.17s0-1.37-.23-2a14.19,14.19,0,0,0-.84-1.81,38.08,38.08,0,0,0-2.11-3.23c-1.45-2.05-3.29-3.92-4.3-6.25-.25-.58-2.33-.5-2.17.14Z"/><path class="cls-6" d="M591.94,1703.76a27.57,27.57,0,0,1,4,6.39c.55,1.13,1.07,2.29,1.51,3.46s.76,2.51,1.18,3.76c.23.68,1.62.72,2.13.68s1.84-.25,1.69-.93a2.76,2.76,0,0,0-1.22-1.5,1.32,1.32,0,0,0-1.45,0,2.77,2.77,0,0,0-1.22,1.5h3.89a19.3,19.3,0,0,0-1.27-3.92,22.35,22.35,0,0,0-1.87-3.6,32.89,32.89,0,0,0-5.69-6.33c-.42-.38-2.32-.22-1.71.49Z"/><path class="cls-6" d="M605.87,1694c.61,1.22,1,2.52,1.58,3.78a20.57,20.57,0,0,0,1.69,3.22,12.49,12.49,0,0,1,2.34,6.44c0,.65,1,.89,1.49,1h0l-.89-.26s-.3-.32-.26-.19a1,1,0,0,0,.12.23c.09.21.16.42.23.64a3.3,3.3,0,0,0,.19.71c.29.56,1.18.72,1.71.83l-.76-.29c.22.14.35.37.58.5.4.2,1.27.24,1.53-.2a.27.27,0,0,0,0-.31,1.19,1.19,0,0,0-1.65,0c0,.06,0,0,0,0l.55-.2h0l1.16.43c0,.15,0,0,0-.06s-.16-.59-.24,0l.68-.35c.54-.46.32-1,.15-1.53a2.3,2.3,0,0,0-2.08-1.87l1.49,1a12.29,12.29,0,0,0-2.56-6.8c-.72-1-1.5-2-2.16-3.1a36.35,36.35,0,0,0-2.56-3.86,1.67,1.67,0,0,0-1.52-.42c-.32,0-1.1.26-.86.74Z"/><path class="cls-3" d="M788.26,849.64C731,940.8,650.34,1022.37,650.34,1022.37c-8,15.73,18.95,23.81,18.95,23.81,125.16,30.11,115.8,46.73,115.8,46.73,47.66,39.19-3,67.87-10,66.62-33.39,6.55-98.87,3.42-188.53-50.12-38.06-22.71-51-50.54-27.74-84.8,87-128,144.74-142.81,213.71-195.64C772.55,829,786.46,838.86,788.26,849.64Z"/><path class="cls-3" d="M793.45,797.17c2.43-4.63,4.65-10.56,8.5-14.22s7.17-3.18,11.72-4.54c10.31-3.08,20-11,29.21-16.47,5.48-3.26,11.65-7.73,16.34,1.46,2.83,5.53,3.15,24.71-4,33.24-6.18,7.32-4,5.52-10.79,12.12-3.51,3.4-5.23,2.87-14.37,10.78-2.07,1.8.8.52-14.37,11.68-7.07,5.2-19.15,14.29-26.53,19.07-6.21,4-4-1.55-9.67-6-2.36-1.85-6.41-4.39-8.21-6.69-4.78-6.08-1.85-2.36,5.09-15.1C781.23,813.57,788.7,806.24,793.45,797.17Z"/><path class="cls-23" d="M588.45,1118.94s19.26-62.39,67.37-101.05l130.63,50.52s49.45,33.25,22.91,89.6c0,0-28.88,56.69-103.94,27.55Z"/><path class="cls-24" d="M951.44,736.29c21.38,5.67,34.71,22.18,45.8,40.17,10.33,16.75,15.64,37.42,2.66,55.51-13.52,18.82-39.23,17.68-56.28,5.64-13.79-9.74-27-22.85-36-37.05-8.24-13-14.18-33.58-4.63-46C913.32,741.14,935.15,732,951.44,736.29Z"/><path class="cls-8" d="M647.73,1377.68c-25.15,113.18-56,289.82-76.8,289.69-65.9-.42-96.12-28.74-96.12-28.74l55.71-271.28S566.3,1265.34,647.73,1377.68Z"/><polygon class="cls-3" points="912.8 1037.91 1051.86 1089.09 975.29 1431.93 792.02 1431.93 781.21 1069.03 847.72 1037.91 912.8 1037.91"/><path class="cls-3" d="M839.46,1042h82.27V943.71H839.46S848.23,1021.13,839.46,1042Z"/><path class="cls-12" d="M842.58,1019c-.16-28.7-3.12-75.31-3.12-75.31h82.27v29.5C901,995.17,874,1015.65,842.58,1019Z"/><path class="cls-23" d="M936.68,1046.18c19.75,7.28,55,20.78,74.73,28.08,12.14,4.48,25.48,7.83,37.2,13.2,13.19,6,15.08,22.14,11.71,35.49-3.17,12.58-14.24,27-14.26,40,0,24.33-3.55,36-8.79,59.71-5.15,23.3-5,54-16.29,74.77-6.07,11.15-5.85,23.48-6.85,35.87s-3.61,18.78-3.18,31.21-7.86,41.51-4.88,58.13c3.68,20.47-86.43,13.58-104.73,13.6-57.28.08-77.41,4.43-114.44-14.39l-6.53-352.39,44.86-21S866.09,1106.94,936.68,1046.18Z"/><path class="cls-23" d="M770.51,1074.05c-3.06,65-17.07,104.93-19,148.28-.7,15.92,2.88,29.27,8.56,44,14.39,37.27,20.55,83.11,23.15,101.24,12,83.64,25.2,81.9,69,72.49,25.93-5.57,31.36-104,36-128,7.15-37,1.29-81.51-26.61-109-19.91-19.66-45.77-25.16-56.12-53.44-7.57-20.69,27-49.83,4.39-58.52-.4.89-14-29.93-13.79-29"/><path class="cls-3" d="M798.72,884.21c.21,30.66,5.75,84.41,27.15,103.76,26,23.47,95.86-15.86,116.72-40.15,26.12-30.37,28.24-85.45,20.71-123.63C954.7,780.67,912,753,867.88,764.43S798.43,844,798.72,884.21Z"/><path class="cls-12" d="M962,822.27a78.4,78.4,0,0,0-8.93-22.72l-14,99.6-.62,38.14,3.18,12.11c1-1,1.86-2,2.68-3C969.67,915.38,970.47,860.26,962,822.27Z"/><path class="cls-3" d="M977.68,875.18c10.7,13.35-.6,47.6-26,56.43-5.23-7.32-3-25.18-2.81-34.08s.89-17.09,7-23.84C957.73,871.62,969.79,865.37,977.68,875.18Z"/><path class="cls-12" d="M955.45,897.24a41.76,41.76,0,0,0-1.27,5.13,2.45,2.45,0,0,0,.11,1.26,3.81,3.81,0,0,0,.57.75,9.22,9.22,0,0,0,1.18,1.24,6.62,6.62,0,0,0,7.17.75,8.23,8.23,0,0,0,3.34-4.2,34.83,34.83,0,0,0,1.86-6c.4-1.73,1.37-4.48-.12-5.91l.29.53c-.22-.83-.33-1.47-1.23-1.78l.76.64v0c.1-1-3-1.08-3.06,0v0l.76-.64a2.11,2.11,0,0,0-1.35,1.38c-.07.17.19-.16,0,0a1.6,1.6,0,0,0-.41.41c-.1.16-.18.33-.27.49a3.58,3.58,0,0,0-.3.79c-.07.26.08-.28,0,0s-.07.24-.1.36c-.55,1.94-.69,4-1.16,6l-.18.73a2.4,2.4,0,0,0-.07.26c0-.16-.06.2-.08.26-.14.48-.29,1-.46,1.43a13,13,0,0,1-1.13,2.46c-.09.16-.2.32-.31.48l-.15.2c-.16.22-.21.17,0,0-.24.19-.52.45-.74.66s.45-.27.18-.12c-.05,0-.17.06-.21.1s.6-.19.27-.11.74-.11.29-.06.75,0,.41,0,.74.07.39,0,.37.1.27.06a1.12,1.12,0,0,0-.26-.08c.44,0,.4.19.11,0l-.32-.17c-.23-.12.31.23,0,0l-.35-.27c-.23-.18-.45-.39-.67-.6l-.32-.34c-.05,0-.09-.11-.14-.15s-.12-.14,0,0,0,.12,0,0a2.82,2.82,0,0,0-.09-.63,6.48,6.48,0,0,1-.06-.76c0-.51,0-1,0-1.53.07-1,.2-1.95.21-2.93,0-1.2-3.18-1.13-3.43,0Z"/><path class="cls-12" d="M963.27,889.54a3.79,3.79,0,0,1,2.76-1.26c.9-.13,1.12-.18,1.86.45,1.79,1.54,2.27,4,2.29,6.28a14.76,14.76,0,0,1-2.16,8.35c-.67,1.06-1.28,2.15-1.95,3.2s-1.41,2-2,3.13c-.49.92,1.82.79,2.18.62a13.94,13.94,0,0,0,4.4-3.5,16.83,16.83,0,0,0,3.22-4.62,16.1,16.1,0,0,0,.88-10.2,8.1,8.1,0,0,0-6.37-5.88,9.23,9.23,0,0,0-4.76.6c-1.26.46-2.61,1.11-3.09,2.46-.39,1.11,2.26,1,2.73.37Z"/><path class="cls-25" d="M927.5,763.05a24.46,24.46,0,0,0-6.68,8.65c-5.65,7.06-22.34,36.38-25.44,40.85-8.42,12.13,1.2,22.21,9.74,30.54,2.7,2.62,5.45,5.22,8.13,7.87,8.09,8,15.68,16.4,19.84,27.2,2.75,7.14,4.79,26.88,15.11,27.66.62-10.31,4.44-31.34,19.73-34,1.91-.7,8.39-.13,13.78,11.43,0,0,30.71-100.29-54.21-120.16"/><path class="cls-25" d="M892.28,817.32l35.22-54.27c-12.9-17.38-58.89-13.56-58.89-13.56-15.9,1.33-78.35,30.72-98.35,76.49,0,0-27.84,67.34,33.49,110.17-7.36-45.26-7.69-74.82,10.13-104.42,11.46,3.86,39.34.86,48.69-3.48,10.26-4.78,23.76-8.86,32.81-15.7"/><path class="cls-8" d="M492.79,1598.65s28.77-436,138.32-441.49c53.9-2.69,78.15,97.91,78.15,97.91l35.86,235.14,40-73.8s95.38,4,219.18.8c48.64,74.37,51.94,131.31,42.79,207-2.91,24-23.51,55.21-38.75,72.75-28.28,32.55-74.29,54.4-116.7,59.65-55.63,6.88-84.11-12.77-120.38-51.46,0,0-35-203.76-55.69-217.38C675,1461,596.29,1621.55,492.79,1598.65Z"/><path class="cls-26" d="M769,1476.69s79.92-21.61,241.91,0"/><path class="cls-11" d="M778.27,1456l5.92.38.6,0a12.77,12.77,0,0,0,1.64.07c.81,0,1.61,0,2.42,0a91.39,91.39,0,0,0,10.7-.92l1.18-.19c.79-.14.82-.14,0-.11,1.08,0,2.15-.09,3.22-.18a35,35,0,0,0,3.94-.58c3.54-.7,7-1.64,10.52-2.48l-3.16.42,9.92.11a82.86,82.86,0,0,0,10.56-.69c3-.35,6.08-.69,9.13-1,1.46-.14,2.92-.28,4.39-.4l2.08-.16-.26,0c.89-.06,3.86-.18,1.39-.09,6.21-.22,12.44-.21,18.65-.47,5.79-.24,11.58-.72,17.37-1,6-.27,12.07-.12,18.1-.12h2.48a4.78,4.78,0,0,0,.93,0l-1.12-.08.69.06c1.63.17,3.24.46,4.85.72a75.14,75.14,0,0,0,10.49.8c1.44,0,3,.27,4.39.2-2.2.1-.66,0-.09,0l1,.07,2.68.22c3.68.3,7.36.6,11,.79,3,.16,6,.14,9,.16,1.31,0,2.63,0,4,.08.6,0,1.2.07,1.8.08-2.75,0-.11,0,.53.07,1.46.15,2.91.35,4.35.62.59.11,1.31.51-.39-.09a10.3,10.3,0,0,0,1.25.28c.72.18,1.44.37,2.15.57a42.27,42.27,0,0,0,6.07,1.47,51,51,0,0,0,5.93.35c1.49,0,3,0,4.45-.07a22.54,22.54,0,0,1,4.5,0s-2.05-.19-.8,0c.4,0,.81.07,1.21.13s.67.11,1,.15c.54.1.27,0-.82-.17l.79.19.79.23c1.35.39-1.27-.61,0,0a30.55,30.55,0,0,0,3.57,1.43,12.94,12.94,0,0,0,8.16-.28c1.66-.63,3.38-1.8,2.63-3.78-.07-.2-.14-.4-.22-.59-.27-.64-.07-.39-.07.06,0-1.1-1.13-1.92-2-2.35a10.87,10.87,0,0,0-4.8-1,10.52,10.52,0,0,0-4.8,1c-.9.49-2,1.19-2,2.35,0-.45.2-.7-.07-.06-.08.19-.15.39-.22.59l13.42-.86c-1.47-1.62-4.31-2.48-6.33-3.07a32.16,32.16,0,0,0-6.23-1.18c-3.81-.34-7.58-.2-11.4-.18-.79,0-1.59,0-2.38,0-1.52,0,2,.19.47,0l-.77-.09c-.37,0-.75-.1-1.13-.17,2.12.39.51,0,.06-.14-1-.32-2-.61-3.07-.87a64.66,64.66,0,0,0-11-1.82c-3.75-.28-7.49-.36-11.25-.36-1.93,0-3.87,0-5.8-.14l-1.46-.08c-1.69-.09,1.45.11.33,0l-3.17-.24c-4.41-.36-8.82-.76-13.24-1-1,0-2-.07-2.92-.09a10.64,10.64,0,0,0-2.39,0l1.12.07-.93-.09-1.38-.17c-1.09-.16-2.16-.35-3.24-.52a77.87,77.87,0,0,0-12.77-.77c-3.76,0-7.52,0-11.28.08-4,.11-8.06.39-12.07.69l-4.92.37-2.74.19c-1.66.12,1.79-.11.12,0l-1.87.11c-7.93.44-15.85.33-23.77,1.07-3.67.34-7.33.79-11,1.27l-5.61.76-2.38.33a4.92,4.92,0,0,1-1.45.2c.93,0,1,0,.27,0l-1,0-6.46.07c-3.06,0-6.08-.08-9.07.72-1.86.5-3.72,1-5.58,1.53a10.19,10.19,0,0,1-2.72.66c.1,0,1.33-.25.32-.07l-1.47.24-1.09.13c-1.08.13,1.47-.08-.23,0l-1.58.1-.95.2c-.63.12-1.25.24-1.88.34-1.92.33-3.85.57-5.79.74-.43,0-.87.1-1.31.1,1.54,0-.13,0-.45,0-1.3.07-2.61.09-3.91.2q-3.12.25-6.23.46c-1.1.08-3.46.77-3.46,2.23s2.35,2.15,3.46,2.22Z"/><path class="cls-11" d="M970.7,1471.17a8.15,8.15,0,0,0-1,2.43c-.15.7-.31,1.39-.46,2.08a32.2,32.2,0,0,0-.66,4.24,42.81,42.81,0,0,0,.08,8.62,42.74,42.74,0,0,1,.56,4.33c0,1.21-.07,2.43-.1,3.64l-.11,3.89-.05,1.87a8.47,8.47,0,0,0,.49,2.53l-.25-.94c1.05,4,1.46,8.05,2.64,12l-.27-1a39.62,39.62,0,0,0,2,11.65c1,3.57,2.14,7.12,3.22,10.67a152.09,152.09,0,0,0,6.69,19.06,40.28,40.28,0,0,0,5.42,8.84,51.18,51.18,0,0,0,7.43,7.06c1.34,1.08,2.86,2,4.16,3.1s2.45,2.18,3.78,3.16a51.4,51.4,0,0,0,8.58,5.06c3.16,1.5,6.18,3.27,9.33,4.8a50.78,50.78,0,0,0,13.09,4.36l-4.18-1.57c3.92,3.34,10.34,3.42,15.18,2.77l-7.21-1.43a11.89,11.89,0,0,0,7.16,2.31c2-.07,5.06-.4,5.6-2.74l0-.16a2,2,0,0,0-.81-1.47c-.13-.11-.27-.29-.4-.38.08,0,.33.54.28.31a1.1,1.1,0,0,0-.2-.28c-1.52-2-4.27-2.26-6.6-2.41l-1.34-.08c-.52,0-1-.27.52,0a5.46,5.46,0,0,0-1.2-.14c1.21-.05,1.08.29.54.09,0,0,1.13.52.59.23s.61.69.26.19a3.6,3.6,0,0,0-.89-.66,16.9,16.9,0,0,0-4.18-1.48,5.14,5.14,0,0,1-1.37-.46s1.11.45.5.18c-.31-.14-.63-.26-.94-.39a52,52,0,0,1-5-2.56c-3.14-1.81-6.2-3.73-9.34-5.54-.85-.48,1.12.75-.07,0-.37-.24-.73-.49-1.09-.74-.78-.54-1.56-1.07-2.32-1.63-1.61-1.18-3-2.61-4.55-3.83-1.86-1.44-3.77-2.76-5.53-4.34-1.6-1.43-3.11-3-4.62-4.47l.84,1a42.31,42.31,0,0,1-5.72-9.82c-1.36-3.22-2.35-6.57-3.63-9.82-1.44-3.63-2.78-7.3-4.12-11-1.43-4-3-7.91-4.13-12l.27,1a30.36,30.36,0,0,1-1-5.08,11.88,11.88,0,0,0-.52-2.82c-.28-.85-.55-1.69-.78-2.55l.26,1c-.87-3.29-1.49-6.62-2.62-9.84l.25.94-.2-7.26a25.87,25.87,0,0,0-.15-3.41c-.23-1.48-.61-3-.85-4.43q-.63-4-1.23-7.94c-.22-1.43-.5-2.82-.82-4.24-.16-.69-.33-1.38-.48-2.08a8.7,8.7,0,0,0-1-2.43c-1.14-2.08-6.65-2.07-7.78,0Z"/><path class="cls-23" d="M1025.16,1321.71c3.54,27.12,16.32,73.75,22.39,100.1,6.19,26.94,8,34.64,11.18,63,3.32,29.6,10.42,57.91,8.6,89-17.78,9-56.95-19.77-73.32-28.64-24.16-13.12-45.19-26.23-71-36.29-31.71-12.39-51.31,8.31-85.37,5-20.1-2-62.22-6.92-75.95-22.55-5.22,3.85-9.78,2.41-14.8,4.34,7.83-33.39,21.16-61.51,19.27-97.93-1.9-36.6,3.68-72.93.05-109.45-8.52-85.73,95.51-108.29,163.07-91.68,27.34,6.72,70.83,9.32,89.79,33.85S1021.45,1293.27,1025.16,1321.71Z"/><path class="cls-27" d="M785.49,1150.2c-2.08,3.6-4.51,6.92-6.78,10.4-2.17,3.31-4.46,6.53-6.8,9.72s-4.41,6.46-6.64,9.66-4.41,6.27-6.59,9.42a201.14,201.14,0,0,0-12.29,19.82c-3.65,6.91-7,14.27-6.87,22.26.15,7.24,3,14.13,6,20.59,1.2,2.57,2.65,5,3.71,7.66.44,1.08.85,2.17,1.28,3.25a51.48,51.48,0,0,0,9.72,15.85,81.71,81.71,0,0,0,10.71,9.82c2.51,2,5.1,3.84,7.74,5.64,1.57,1.08,3.17,2.13,4.77,3.17a57,57,0,0,0,5.72,3.52c1,.49,2,1,3.06,1.4a15.67,15.67,0,0,0,5.39.88c1.21,0,3.12-.31,3.44-1.69a2.25,2.25,0,0,0-.78-2.43,23.14,23.14,0,0,0-2.32-1.87c-1-.69-2-1.28-3-1.91l-.29-.18-.28-.18-1.43-.93c-2.91-1.89-5.78-3.85-8.57-5.91a96.71,96.71,0,0,1-11.85-10.09c-.72-.74-1.43-1.49-2.11-2.26l-.43-.49c.7.79.15.17,0,0-.3-.36-.6-.73-.89-1.1a44.84,44.84,0,0,1-2.84-4,47.74,47.74,0,0,1-3.6-7.14c-1-2.47-1.86-5-3.06-7.4-3.14-6.27-6.87-12.69-8.3-19.55a30,30,0,0,1-.39-10.18,41,41,0,0,1,3.46-11.06,158.63,158.63,0,0,1,10.77-20c7.86-12.64,17.21-24.58,22-38.83.61-1.8,1.23-3.58,1.79-5.39.42-1.38-2.91-1.42-3.46-.47Z"/><path class="cls-27" d="M895.41,1467.4a21.67,21.67,0,0,1-8.76-4.59,35.54,35.54,0,0,0-9.86-5.81c-4.69-1.7-9.82-1.55-14.71-1.1a54.45,54.45,0,0,0-14.38,3.53,140.44,140.44,0,0,0-13,6.13c-.81.41-1.64.8-2.47,1.16l-1.25.53-.63.25c-.91.36.86-.29.22-.08-1.73.57-3.44,1.14-5.21,1.57-.52.12-2,.34,0,0-.42.06-.84.16-1.26.23-.89.15-1.78.27-2.68.36-.29,0-2,.16-.46.06s-.16,0-.46,0c-.87,0-1.74,0-2.62,0-1.7-.07,1.59.15.43,0l-1.2-.13c-.9-.11-1.79-.25-2.68-.4-1.09-.19,1.91.43.31,0l-1-.26c-.83-.23-1.62-.52-2.44-.78,2.06.65.37.13-.15-.1l-1.23-.57c-.87-.43-1.67-1-2.53-1.41.07,0,1.14.76.41.25l-.63-.44-1.12-.84a28.88,28.88,0,0,1-2.28-2c-.35-.34-.7-.69-1-1l-.45-.48s-.71-.85-.27-.3-.05-.07-.15-.2l-.52-.66a11.46,11.46,0,0,0-1.88-1.93,7.26,7.26,0,0,0-.63-.5l-.32-.26c.18.4.1.35-.25-.14a7.4,7.4,0,0,0-2.22-1.86l-1.29-.49.36.14c.08.12-.4-.44-.53-.54a10.33,10.33,0,0,0-2.93-1.27c-1.27-.45-3.68-.41-4.7.61a5.76,5.76,0,0,0-1.15,1.22c-.28.54-.1.55-.17,1s.08.4.12.23c0,.18-.3.35-.39.52a2,2,0,0,0-.13,1.57,4,4,0,0,0,.3.9c.18.42-.09-.48.06.16a6.58,6.58,0,0,0,1.14,3c.81,1,1.66,2,2.55,2.92a34.72,34.72,0,0,0,9.53,6.94c8,4,17.27,5,26.05,3.78a54.59,54.59,0,0,0,12.54-3.43,82.75,82.75,0,0,0,10.7-5.74c2.06-1.19,4.16-2.33,6.33-3.34.94-.44,1.89-.84,2.86-1.23.8-.32.12,0,0,0l.72-.26c.59-.2,1.19-.4,1.79-.58,1-.29,1.94-.51,2.91-.76-1.12.29.32,0,.64-.11.64-.11,1.28-.2,1.93-.29s1-.12,1.58-.16l.8-.07c-.19,0-1,.05-.06,0,.55,0,1.1,0,1.65,0a3,3,0,0,1,.73,0c-1-.32-.22,0,.18,0l.68.1c.82.11-.42-.13.08,0s1,.25,1.45.4l.62.22c-.75-.27.25.1.32.14.5.21,1,.44,1.48.68,1.82.91,3.54,2,5.32,3,4.23,2.28,8.63,4.2,13.46,4.63.81.07,2.2.1,2.73-.66s-.26-1.26-.94-1.42Z"/><path class="cls-27" d="M944.51,1071.39c-2.36,1.45-4.67,3-7,4.4s-4.44,3.07-6.7,4.4a110.42,110.42,0,0,1-14.84,7.11c-.74.29,1-.39-.18.06l-.93.35-1.87.68c-1.31.46-2.64.9-4,1.31-2.64.83-5.32,1.56-8,2.2l-1.91.43a5.76,5.76,0,0,1-1.15.25c.12,0,1.38-.28.36-.08q-2.06.39-4.14.75-3.82.66-7.7,1l-1.8.16c-.23,0-.47,0-.71,0,2.13,0,.71-.09.26-.09-1.41,0-2.81,0-4.22,0-2.72,0-5.45.06-8.17,0q-1.92,0-3.84-.09c-.67,0-1.36-.12-2-.11,2,0,.67,0,.18,0l-1.21-.1q-2-.18-4-.48c-.65-.1-1.31-.21-2-.33l-.39-.07c-.68-.13-.52-.1.47.1a5.15,5.15,0,0,0-1.16-.27c-1.26-.31-2.51-.67-3.75-1.09-.1,0-1.31-.49-.39-.13s-.29-.13-.39-.17c-.71-.29-1.41-.62-2.11-1a37.08,37.08,0,0,0-4.29-2.11l-.37-.13c-.88-.29,1.5.6.62.23l-1.25-.52c-1.67-.72-3.29-1.54-4.88-2.42-.88-.48-1.75-1-2.6-1.5l-.67-.4c-.12-.08-.9-.68-.25-.16s-.15-.1-.27-.17l-.8-.53a60.36,60.36,0,0,1-11.5-9.58l-.39-.44c.77.86-.1-.13-.24-.31-.32-.4-.63-.8-.93-1.22-.59-.84-1.12-1.71-1.72-2.55-1-1.37-1.46-2.58-3.08-3.44l-.5-.25c-.23-.12-1-.72-.42-.22-.36-.34-.73-.65-1.08-1-1.12-1.12-4.43-1.15-5.55,0-.4.42-.75.9-1.16,1.32-.08.08-.38.32,0,0-.18.15-.36.29-.53.45-.58.54-1.31,1.17-1.33,2a5.16,5.16,0,0,0,.27,1.33,13.87,13.87,0,0,0,3,5.57,55.62,55.62,0,0,0,10.49,9.78,83.47,83.47,0,0,0,12.1,7.45c1.93,1,3.91,1.67,5.9,2.49.78.31-1.19-.61-.54-.1a6.42,6.42,0,0,0,.85.48c.57.31,1.15.61,1.74.88a49.65,49.65,0,0,0,5.38,2.12c11.89,3.94,24.68,3.1,37,3a86.81,86.81,0,0,0,18.21-2.51,120.29,120.29,0,0,0,17-5.28,96.53,96.53,0,0,0,17.12-8.74c4.76-3,9.77-6.49,12.37-11.65.9-1.8-3.59-1.73-4.37-1.25Z"/><path class="cls-27" d="M769.68,1282.11c-.24,3.28-.78,6.54-1,9.82-.18,3.11-.45,6.22-.75,9.32-.62,6.38-1.37,12.75-1.85,19.15-.47,6.23-.29,12.5-.66,18.74s-1,12.52-1.67,18.75c-.2,1.76-.49,3.53-.55,5.29s-.08,3.51-.13,5.27-.06,3.34-.08,5a11.39,11.39,0,0,0,0,2.61,4.09,4.09,0,0,0,.33.7,5.14,5.14,0,0,1,.16,2.14c0,.84,2.2.77,2.39,0a8.42,8.42,0,0,1,.35-1.42c.19-.41.61-.75.8-1.15a11.45,11.45,0,0,0,.57-2.16c.39-1.59.79-3.17,1.14-4.76a81.26,81.26,0,0,0,1.74-9.11c.66-6.24,1.22-12.49,1.57-18.76s.43-12.45.44-18.69.12-12.76.26-19.14c.08-3.6.13-7.2.08-10.8a71.42,71.42,0,0,0-1.22-10.8c-.11-.65-1.9-.68-1.94,0Z"/><path class="cls-3" d="M954.2,862.94c57.23,91.17,151,194.46,151,194.46,8,15.73-19,23.82-19,23.82-125.14,30.1-115.79,46.72-115.79,46.72-47.66,39.19,3,67.88,10,66.63,33.41,6.55,98.88,3.41,188.54-50.12,38.06-22.72,51-50.55,27.73-84.81-87-128-155.21-139.46-226.77-217.36C969.92,842.28,956,852.16,954.2,862.94Z"/><path class="cls-3" d="M949,810.47c-2.43-4.62-4.64-10.55-8.49-14.22s-7.17-3.18-11.73-4.54c-10.31-3.07-19.95-11-29.2-16.47-5.49-3.26-11.65-7.72-16.35,1.47-2.82,5.52-3.14,24.7,4,33.23,6.16,7.33,3.93,5.54,10.77,12.13,3.52,3.4,5.24,2.87,14.37,10.78,2.08,1.8-.8.52,14.38,11.68,7.06,5.2,19.15,14.28,26.52,19.06,6.22,4,4-1.54,9.67-6,2.37-1.86,6.41-4.39,8.22-6.69,4.77-6.09,1.84-2.36-5.11-15.1C961.23,826.88,953.77,819.54,949,810.47Z"/><path class="cls-6" d="M855.92,951c-4.55.13-11-2.84-13.9-3.22-4.76-.63-10.27,3-14.66,0-2.94-2-3.52-7.37-1.74-10.15,5.47-8.54,20.09-6.47,27.53-2.59,3.4,1.79,7.59,5.61,7.79,9.9C861.15,949.41,859,950.87,855.92,951Z"/><path class="cls-15" d="M862.76,905.82c0,4.06,7.76,7.35,17.34,7.35s17.33-3.29,17.33-7.35-7.76-7.33-17.33-7.33S862.76,901.77,862.76,905.82Z"/><path class="cls-15" d="M799.24,905.82c0,4.06,6.25,7.35,14,7.35s14-3.29,14-7.35-6.24-7.33-14-7.33S799.24,901.77,799.24,905.82Z"/><path class="cls-12" d="M840.63,879.57a4.83,4.83,0,0,1,.5,3.11,19.21,19.21,0,0,1-.73,3.51c-.29,1.11-.52,2.23-.92,3.32a20.38,20.38,0,0,1-1.6,3.41,28.12,28.12,0,0,1-4.34,5.33,37.88,37.88,0,0,0-4.85,5.28,8,8,0,0,0-1.46,4.56,7.41,7.41,0,0,0,1.48,4c2.07,2.83,5.3,4.71,8.43,6.16a53,53,0,0,0,5.73,2.21,33.61,33.61,0,0,0,5.11,1.31c.71.1,4-.09,3.25-1.6a2.93,2.93,0,0,0-2.62-1.57,2.6,2.6,0,0,0-2.48,1.57l3.89-.77c-.47-.11-.94-.19-1.41-.28s.64.14.06,0l-.5-.11c-.72-.16-1.45-.34-2.16-.54s-1.6-.46-2.38-.72l-1.24-.43a2.53,2.53,0,0,1-.62-.22s.46.17.12,0l-.38-.15a33.37,33.37,0,0,1-4.82-2.32l-.56-.33c.34.21-.2-.14-.29-.2-.34-.23-.68-.47-1-.73a14.6,14.6,0,0,1-1.75-1.58s-.24-.27-.12-.13l-.11-.13-.33-.43a8.51,8.51,0,0,1-.57-.9,5.24,5.24,0,0,1-.63-1.75,6.1,6.1,0,0,1,.87-4.17,28.92,28.92,0,0,1,4.32-5.06,32.69,32.69,0,0,0,4.23-5.3,24,24,0,0,0,2.7-7.61c.49-2.41.84-5.23-1-7.15-.32-.33-2.15-.23-1.77.37Z"/><path class="cls-25" d="M893.91,872.89a27,27,0,0,0-9.06-5.82,25.53,25.53,0,0,0-10-1.55,28.83,28.83,0,0,0-10.21,2.41,31.17,31.17,0,0,0-4.19,2.24c-1,.65-4.32,2.23-3.93,3.71s2.65,1.67,3.87,1.44a6.78,6.78,0,0,0,3.1-1.23c.61-.45,1.18-.94,1.79-1.38a26.48,26.48,0,0,1,3.12-1.93,18.74,18.74,0,0,1,6.75-2.15,14.15,14.15,0,0,1,2.9,0,18.63,18.63,0,0,1,3.6.84,34.66,34.66,0,0,1,8.63,4.41,3.46,3.46,0,0,0,2.86.37c.63-.2,1.45-.75.75-1.4Z"/><path class="cls-25" d="M803.41,871.18c3.93-1.93,8.46-3.2,12.67-2.38a20.15,20.15,0,0,1,5.8,2.23,25.59,25.59,0,0,1,2.85,1.83c.48.34.93.73,1.4,1.07a6.58,6.58,0,0,0,3,1.13c.9.13,3.38.11,3.77-1l.08-.23a1.09,1.09,0,0,0-.36-1.32,20.29,20.29,0,0,0-3.84-2.64,30.06,30.06,0,0,0-3.79-1.94,28.37,28.37,0,0,0-8.38-2.21,27.51,27.51,0,0,0-8.77.57,22.36,22.36,0,0,0-7.71,3.7c-.7.49,0,1.12.54,1.32a3.64,3.64,0,0,0,2.75-.08Z"/><path class="cls-28" d="M882.79,885.4s-7.65,4.72-15.49,0"/><path class="cls-28" d="M822.39,885.4s-7.66,4.72-15.5,0"/><path class="cls-23" d="M1167.08,1154s-19.25-62.39-67.36-101l-90.28,27.62s-90.27,35-71.58,104.77c0,0,37.2,64.42,112.26,35.28Z"/><path class="cls-27" d="M1009.91,1099.29a11.81,11.81,0,0,0-2.5,2.49c-.52.85-1.07,1.7-1.59,2.55-1.1,1.77-2.11,3.56-3.05,5.42-1.61,3.18-3.16,6.39-4.62,9.64a157.06,157.06,0,0,0-7.06,18.25,144.71,144.71,0,0,0-6.21,33.31c-.85,13.22-.08,26.6.75,39.8,1,15,2.36,29.91,4.77,44.7a198.63,198.63,0,0,0,5.39,25.23c1.23,4.07,2.55,8.12,4,12.12.75,2.12,1.57,4.2,2.45,6.26a16.55,16.55,0,0,0,1.53,3.1c.73,1,1.52,2,2.34,3s3.95,1.32,4.11-.27a16.43,16.43,0,0,0-.13-5.42c-.45-2-.84-3.92-1.3-5.87q-1.29-5.41-2.32-10.86c-1.37-7.26-2.83-14.51-4-21.8a416.55,416.55,0,0,1-4.3-44.59c-.37-7.64-.57-15.28-.86-22.92-.23-6.06-.48-12.12-.31-18.18a140.53,140.53,0,0,1,4.67-32.57,193.92,193.92,0,0,1,6.39-19.47q2.12-5.46,4.52-10.8c.87-2,1.78-3.9,2.57-5.9.41-1,.81-2,1.23-3a5.66,5.66,0,0,0,.54-1.49,17.21,17.21,0,0,0,0-1.75c0-1.18-1.89-1.65-2.74-1.76a5.51,5.51,0,0,0-4.21.84Z"/><path class="cls-8" d="M593.84,1664.68s42.67,33.23,97,17.51l45.81-157.64L848.49,1697s126.66-2.69,132-140.13l-156.3-323.37s-44-79.94-99.7-72.75c0,0-71.87,5.39-83.54,123.06C641,1283.82,602.82,1517.37,593.84,1664.68Z"/><path class="cls-11" d="M680.71,1189.21c-12.91,11.83-20.94,27.39-27.33,43.47-3.34,8.41-6.56,16.9-9.12,25.58-2.5,8.42-4.76,16.91-7.13,25.37-4.51,16.11-7.69,32.6-10.9,49-5.12,26.1-9.81,52.29-13.65,78.61q-6.3,43.1-11.81,86.31c-1.59,12.7-3,25.39-4.18,38.14q-.75,8.22-1.4,16.46a54.69,54.69,0,0,0,.43,14.06c.19,1,.38,2,.61,3a12.4,12.4,0,0,1,.69,3c-.08,1.18,3.5,1.26,3.59,0a11.49,11.49,0,0,1,1.07-2.77c.4-1.06.76-2.13,1.13-3.2a69.92,69.92,0,0,0,1.8-7c1.18-5,1.54-10.29,2.19-15.43,1.54-12.08,3.28-24.13,4.83-36.2,3.65-28.38,7.7-56.71,11.94-85,4-27,7.89-53.95,11.68-80.95,2.46-17.5,4.73-35.11,8.14-52.46,2.8-14.2,6.2-28.29,9.41-42.41,3.86-17,10.71-33.86,21.28-47.82a80.51,80.51,0,0,1,8.28-9.32c.57-.55-1.15-.81-1.55-.44Z"/><path class="cls-11" d="M761.94,1401.49c-4.62,6.26-7.63,13.35-10.06,20.7a233.84,233.84,0,0,0-6.22,23.59c-1.78,8.15-3.24,16.36-5,24.52l-6.51,30c-4.18,19.21-8.14,38.49-12.51,57.66-4.12,18.15-8.76,36.17-14.55,53.86q-4.32,13.24-9.5,26.18-2.57,6.36-5.36,12.62c-.92,2.05-1.5,4.27-2.22,6.4s-1.48,4.23-2.24,6.33-1.56,4-2.38,6c-.42,1.05,2.28,1.07,2.74.37,2.65-4,5.26-8.06,7.79-12.15a56.36,56.36,0,0,0,3.52-6c1-2.11,1.91-4.24,2.84-6.37q5.54-12.78,10.13-25.94A550.16,550.16,0,0,0,728,1565.7c2.18-9,4-18.09,5.92-27.15q3.19-14.85,6.38-29.7t6.44-29.95c1.91-8.92,4-17.81,5.47-26.8,2.57-15.56,5.13-31,11.8-45.45q1.08-2.33,2.37-4.55c.87-1.5-3.62-1.74-4.46-.61Z"/><path class="cls-11" d="M776.33,1428.12a39,39,0,0,0-22.13,6,35.55,35.55,0,0,0-8.48,7.37,24.54,24.54,0,0,0-2.74,4,20,20,0,0,0-1.06,2.36c-.6,1.59-.88,2.63.55,3.91,2.25,2,7.09,1.9,9.62.61a4.39,4.39,0,0,0,2.51-3,19.49,19.49,0,0,1,.84-2.07,22.53,22.53,0,0,1,2.43-4l.6-.76c.28-.34.28-.34,0,0l.44-.48c.52-.56,1.07-1.1,1.63-1.62a32.57,32.57,0,0,1,3.64-2.87c.09-.07,1.18-.79.62-.43s.55-.33.66-.39c.66-.39,1.35-.75,2-1.12,1.29-.71,2.58-1.37,3.93-2,1.18-.53,2.3-1.16,3.5-1.64-1,.39.18-.06.38-.13s.51-.17.77-.24c.66-.2,1.33-.38,2-.52s2-.91,1.58-1.9-2.34-1.21-3.32-1.24Z"/><path class="cls-11" d="M736.89,1505.41c-1.77,3.91-1.3,8.59-.69,12.7a51.8,51.8,0,0,0,1.64,6.46,54.58,54.58,0,0,1,1.23,7.59c1.51,11.39,2.93,22.81,4.77,34.16,1,6.29,2.44,12.5,3.61,18.77,1.08,5.76,2,11.56,3.11,17.32,2.8,14.59,5.61,29.19,8.86,43.69a438.8,438.8,0,0,0,12.34,45.52,161.29,161.29,0,0,0,7.58,18.83c1.32,2.71,2.73,5.37,4.3,7.94a30.82,30.82,0,0,0,5.29,7.11c.22.19.42.4.66.57l-.26-.39.58.67a4.46,4.46,0,0,0,.42.34c.26.21.51.41.77.6s.22.18.34.26l.16.13c1,.6,1.1.69.34.25a5.88,5.88,0,0,0,3.08,1.16,9.67,9.67,0,0,0,4-.25c1.69-.55,3.43-1.76,1.85-3.46l-.13-.14.71,1.28a7.52,7.52,0,0,0-.77-1.87,1.53,1.53,0,0,0-.16-.31c-.45-.47.3,1-.13-.09-.16-.41-.32-.79-.51-1.19a27.36,27.36,0,0,0-2-3.06,75.77,75.77,0,0,1-4.21-7.24,158,158,0,0,1-7.67-17.92c-2.57-7-4.79-14.13-6.82-21.3-.24-.86-.48-1.71-.71-2.57s.1.37-.06-.22l-.21-.76c-.14-.51-.27-1-.41-1.53q-.76-2.84-1.48-5.69-1.47-5.74-2.81-11.52c-3.42-14.66-6.35-29.42-9.21-44.2-2.12-11-4.65-21.77-7.2-32.63-2.64-11.25-4.38-22.68-6.51-34-.52-2.77-1.22-5.5-1.91-8.23a61.15,61.15,0,0,0-2.26-8.13c-.79-2-1.52-4-2.39-5.89a46.47,46.47,0,0,1-2.61-6.72,13.39,13.39,0,0,1-.43-5.73c.24-1.33-3.64-1.31-4.1-.28Z"/></g></svg>